<svg width="191" height="86" viewBox="0 0 191 86" fill="none" xmlns="http://www.w3.org/2000/svg">
<path fill-rule="evenodd" clip-rule="evenodd" d="M25.2911 0.49723H45.1848C47.1153 0.49723 47.1281 0.497231 47.2242 2.4912C47.496 8.11385 46.0493 13.2594 42.6044 17.715C37.6941 24.0645 31.0555 27.0479 23.1381 26.2734C13.3797 25.3188 6.1407 18.5894 3.84347 9.0387C3.27848 6.64502 3.11203 4.17458 3.35082 1.72675C3.44105 0.738124 3.8443 0.46409 4.84073 0.47133C11.6573 0.520622 18.4743 0.49723 25.2911 0.49723Z" fill="#D0AA6D"/>
<path fill-rule="evenodd" clip-rule="evenodd" d="M24.0668 83.8525C18.4442 83.3989 12.2649 81.9998 6.76669 78.5741C0.631622 74.7516 -0.249512 70.8918 0.569518 64.354C1.24346 58.9767 3.7089 54.2171 6.15429 49.4736C7.59853 46.6729 9.02911 43.8652 10.4962 41.0764C11.6257 38.9284 13.752 39.3086 15.6345 39.164C17.6823 39.0072 19.4392 40.2011 21.404 40.5105C25.3891 41.1388 29.4104 41.398 33.4182 41.7826C38.6019 42.2797 43.691 43.1701 48.5857 44.9941C50.2479 45.6135 50.3841 45.9365 50.043 47.6849C48.7761 54.1828 47.5424 60.6902 45.2135 66.9191C43.6116 71.2042 41.5831 75.2459 38.307 78.5421C34.5945 82.2771 30.0315 83.8394 24.0668 83.8525Z" fill="#F4D349"/>
<path fill-rule="evenodd" clip-rule="evenodd" d="M12.6732 27.5961C11.6773 26.9757 11.1278 26.055 10.7399 24.9589C10.223 23.4402 9.34272 22.0709 8.17559 20.9704C7.86586 20.6005 7.7103 20.1256 7.74115 19.6442C7.76 19.3576 7.88741 19.0889 8.09743 18.8929C8.30744 18.6969 8.58427 18.5883 8.87153 18.5893C10.3032 18.4776 11.7403 18.4528 13.175 18.5149C15.707 18.6893 17.0688 20.3713 17.9672 22.5497C18.1122 22.9495 18.3239 23.3219 18.5932 23.6511C18.6175 23.5313 18.6447 23.4116 18.6654 23.2907C18.8213 22.3895 18.8781 21.4563 19.1527 20.5922C19.6161 19.1343 19.5763 17.6959 19.3518 16.2174C19.1274 14.7389 18.9505 13.2563 18.8096 11.77C18.7556 11.1991 18.9129 10.5753 19.547 10.4054C20.1573 10.2308 20.7954 10.1754 21.4266 10.2422C22.5644 10.3932 23.0259 10.8886 23.127 12.0599C23.2281 13.2312 23.1398 14.4151 23.2351 15.5853C23.3046 16.4948 23.4681 17.3946 23.723 18.2704C23.948 19.0243 24.5272 19.2992 25.3103 19.2791C26.0934 19.2591 26.6471 18.8466 26.8086 18.1304C27.0302 17.1021 27.1802 16.0597 27.2575 15.0107C27.3313 14.1385 27.2609 13.2563 27.2854 12.3785C27.3327 10.7585 28.2954 9.97793 30.019 10.2411C31.488 10.4658 31.7994 10.8538 31.6398 12.3498C31.4646 13.9954 31.2028 15.6307 30.9759 17.2696C30.8526 18.2611 30.9348 19.2673 31.2173 20.2257C31.5198 21.3352 31.6991 22.4789 31.9511 23.6993C32.0957 23.4208 32.2313 23.1595 32.3664 22.8989C32.7401 22.1748 33.0626 21.4209 33.499 20.7364C34.4659 19.2184 35.9296 18.5161 37.6885 18.4707C38.9431 18.4384 40.2016 18.5058 41.4567 18.5667C41.7304 18.5608 41.9983 18.6454 42.2189 18.8073C42.4396 18.9693 42.6006 19.1995 42.677 19.4624C42.7807 19.7256 42.7999 20.0145 42.7321 20.2892C42.6643 20.5638 42.5128 20.8106 42.2986 20.9954C41.1487 22.0273 40.2823 23.3365 39.7819 24.7982C39.355 25.9505 38.8515 27.0007 37.7088 27.6234C38.5067 28.2102 38.5117 29.2208 37.9495 29.9814C37.5635 30.5024 37.3925 31.1897 37.1664 31.8174C37.0321 32.1898 37.0037 32.5972 36.8893 32.9798C36.188 35.3191 34.6132 36.5147 32.1647 36.5083C31.6545 36.5066 31.4248 36.6642 31.2736 37.1351C31.0001 37.9887 30.6868 38.8311 30.3521 39.6624C29.4328 41.8506 29.2592 44.2805 29.858 46.5772C30.2003 47.9053 30.1482 49.1864 29.1604 50.2945C29.0346 50.5196 28.9757 50.7761 28.9908 51.0336C28.5062 57.3646 28.4604 63.7216 28.8538 70.059C29.1418 74.8177 29.5826 79.5673 29.9552 84.3205C29.9691 84.5082 29.9778 84.6965 29.9936 84.9661C29.4626 84.4342 28.3954 70.4945 28.3843 67.9948C28.3592 62.3301 28.1893 56.6674 28.6349 50.9651C28.2124 52.9306 26.9849 53.8577 25.0424 53.7814C23.2824 53.7129 22.1952 52.7858 21.829 51.001C22.3701 56.6947 22.1799 62.3585 22.0117 68.0224C21.8446 73.6718 21.3115 79.2936 20.7373 84.9109H20.5036C20.4926 84.6804 20.4938 84.4494 20.507 84.2189C21.358 76.1962 21.9351 68.1561 21.8217 60.0827C21.7786 57.0113 21.5836 53.9421 21.4447 50.8732C21.4468 50.6378 21.376 50.4076 21.2419 50.2143C20.4173 49.2674 20.3229 48.171 20.5178 47.0044C20.6134 46.4338 20.6983 45.8601 20.8242 45.2956C21.1779 43.7016 20.9356 42.1596 20.4232 40.6449C20.0205 39.4552 19.5702 38.2822 19.1658 37.0934C19.1311 36.9307 19.0379 36.7864 18.9039 36.6879C18.7698 36.5894 18.6043 36.5435 18.4387 36.5589C17.8419 36.5333 17.2496 36.4437 16.6719 36.2919C15.3277 35.9343 14.3764 35.1328 13.9954 33.7401C13.7957 33.0102 13.5404 32.295 13.3588 31.5607C13.2491 30.9307 12.9555 30.3473 12.515 29.8839C11.9925 29.3826 12.0672 28.7103 12.1666 28.0796C12.1933 27.915 12.4643 27.7874 12.6732 27.5961ZM18.7915 24.3278C18.3011 24.1771 18.019 23.7171 17.7795 23.1927C17.6252 22.8285 17.4229 22.4865 17.178 22.1759C16.6963 21.5899 16.1772 21.0357 15.624 20.5167C15.2221 20.148 14.7443 19.6434 14.2722 19.6116C12.822 19.5339 11.3682 19.5518 9.92032 19.6651C9.31377 19.7049 9.07873 20.2892 9.3561 20.8364C9.52318 21.1283 9.72334 21.3999 9.95262 21.646C10.2481 21.9932 10.6508 22.2767 10.8558 22.6675C11.3166 23.5464 11.6634 24.4837 12.0961 25.3785C12.3816 25.9653 12.7044 26.5332 13.0625 27.0787C13.3131 27.4627 13.6921 27.5521 14.1633 27.421C16.544 26.7642 19.0574 26.759 21.4408 27.4059C23.8131 28.0745 26.3179 28.1187 28.7123 27.5343C31.2427 26.891 33.7808 26.6774 36.3392 27.4184C36.4613 27.4336 36.5852 27.424 36.7035 27.3901C36.8217 27.3562 36.9319 27.2988 37.0274 27.2213C37.8676 26.5529 38.3379 25.6392 38.6721 24.6347C39.0912 23.3729 39.639 22.1709 40.7251 21.3316C40.929 21.2037 41.085 21.0123 41.1693 20.7869C41.2536 20.5616 41.2615 20.3147 41.1916 20.0845C41.0549 19.5832 40.6188 19.444 40.1612 19.4192C39.0865 19.361 38.0099 19.3315 36.9344 19.2799C36.6546 19.2647 36.3751 19.3147 36.1179 19.4258C35.8608 19.537 35.6329 19.7063 35.4523 19.9205C34.8552 20.564 34.2149 21.1689 33.644 21.8345C33.2647 22.2882 32.9302 22.7776 32.6451 23.2957C32.3764 23.7733 32.116 24.2175 31.6261 24.3342C31.3613 22.9638 31.0878 21.6212 30.8464 20.273C30.7138 19.532 30.4944 18.7692 30.5598 18.0368C30.7108 16.3745 30.9937 14.7228 31.2621 13.0733C31.3588 12.4801 31.1655 12.041 30.5815 11.9836C29.9276 11.9151 29.2692 11.8987 28.6126 11.9346C27.8532 11.9808 27.6457 12.2356 27.6357 13.0048C27.6232 13.8428 27.7134 14.6896 27.6232 15.5176C27.5242 16.5433 27.3297 17.5574 27.0422 18.547C26.8195 19.2833 26.1575 19.6353 25.3605 19.6748C24.5233 19.7166 23.8597 19.4192 23.4701 18.6745C23.2308 18.2603 23.0716 17.8047 23.0008 17.3317C22.879 16.2042 22.8249 15.0705 22.8388 13.9366C22.8719 12.5055 22.2921 11.848 20.8587 11.8836C20.7195 11.887 20.5802 11.8967 20.441 11.9115C19.3574 12.0301 19.1644 12.3893 19.327 13.4654C19.6253 15.431 20.1514 17.3977 19.835 19.4C19.5774 21.0391 19.1535 22.6552 18.7915 24.3278ZM22.5327 40.2038C22.5884 40.2249 22.6458 40.2461 22.7023 40.2681C21.5073 42.3147 21.3981 44.6303 20.9125 46.8579C20.4332 49.0549 21.6343 50.4343 23.1362 51.5574C23.7207 51.9984 24.4273 52.2479 25.1591 52.2714C25.8909 52.295 26.6122 52.0916 27.2238 51.6891C28.4609 50.8927 29.4581 49.7278 29.657 48.1228C29.6631 48.0834 29.6636 48.0432 29.6584 48.0036C29.3069 45.927 29.2607 43.7918 28.4556 41.804C28.2294 41.2453 28.0039 40.6865 27.7791 40.1275L27.8752 40.0885C28.2729 40.8961 28.6694 41.7037 29.0897 42.5592C29.7547 40.5126 30.3938 38.5415 31.0491 36.5227C30.7038 36.4113 30.4008 36.3217 30.107 36.2131C28.237 35.5185 27.2815 34.0378 26.6922 32.2393C26.5371 31.7659 26.3714 31.298 26.1867 30.8369C25.9804 30.3189 25.4769 30.3122 25.0705 30.3715C24.8336 30.4061 24.571 30.7255 24.4487 30.9786C24.2604 31.3685 24.2056 31.8191 24.0544 32.2296C23.252 34.406 22.0816 36.2067 19.5317 36.5656C19.5025 36.5701 19.4799 36.6177 19.437 36.6639C19.7793 37.6286 20.1447 38.5952 20.4674 39.5769C20.7902 40.5586 21.0662 41.55 21.3742 42.5762C21.7683 41.7686 22.1503 40.9863 22.533 40.2038H22.5327ZM16.7029 27.9693C16.7344 28.1607 16.7308 28.3562 16.6923 28.5463C16.5904 28.8068 16.5441 29.0858 16.5564 29.3652C16.5687 29.6447 16.6392 29.9185 16.7636 30.1691C17.4654 31.9024 18.156 33.6412 18.8765 35.3667C18.9332 35.4442 19.0076 35.5071 19.0936 35.55C19.1795 35.5929 19.2744 35.6147 19.3705 35.6135C20.1912 35.5522 20.97 35.2265 21.59 34.6853C22.6505 33.7562 23.0972 32.4972 23.4818 31.2162C23.9399 29.6909 23.4615 28.8212 21.9696 28.2837C20.2499 27.6627 18.4955 27.6705 16.7029 27.9693ZM33.7128 27.8977C31.9784 27.6749 30.2 27.6362 28.487 28.3645C27.2475 28.8914 26.7312 29.6608 27.1055 30.8394C27.4961 32.0032 28.0054 33.1238 28.6252 34.1834C29.068 34.9682 29.8953 35.3503 30.7653 35.6079C31.2237 35.7435 31.4713 35.6296 31.6565 35.203C32.2753 33.7827 32.9654 32.3903 33.5185 30.9466C33.7674 30.2988 33.7861 29.5558 33.8551 28.8513C33.8459 28.5289 33.7984 28.2088 33.7137 27.8977H33.7128ZM31.9233 35.6992C33.4953 35.9321 34.9936 35.3063 35.6143 34.0495C36.2713 32.7662 36.5884 31.336 36.5356 29.8953C36.4774 28.67 35.5935 28.0996 34.2035 28.365C34.5001 31.1351 32.6123 33.2093 31.9241 35.6992H31.9233ZM18.6183 35.7171C18.1023 34.5282 17.6325 33.3898 17.1175 32.2716C16.5374 31.0112 15.8794 29.7769 16.3188 28.3196C15.101 28.128 14.1124 28.7374 14.2285 29.8805C14.2858 30.8845 14.4089 31.8836 14.5969 32.8715C15.0751 34.8766 16.4163 35.8084 18.6191 35.7171H18.6183ZM27.7866 51.8919C27.0078 52.4118 26.0732 52.6467 25.141 52.5566C24.3019 52.4072 23.4718 52.2114 22.6544 51.9701C23.0398 52.8972 24.0106 53.4444 25.3237 53.4013C26.5758 53.36 27.4717 52.8359 27.7866 51.8919Z" fill="black"/>
<path fill-rule="evenodd" clip-rule="evenodd" d="M27.0068 49.911C26.7497 48.6779 27.1811 47.349 28.0199 46.792C28.4346 47.662 27.9233 49.234 27.0068 49.911Z" fill="black"/>
<path fill-rule="evenodd" clip-rule="evenodd" d="M22.5561 46.7939C23.4052 47.3749 23.8552 48.735 23.6096 49.8927C23.1646 49.5241 22.8305 49.0394 22.6445 48.4923C22.4585 47.9453 22.4279 47.3574 22.5561 46.7939Z" fill="black"/>
<path fill-rule="evenodd" clip-rule="evenodd" d="M25.3247 54.9589C25.9279 54.989 26.6058 54.8954 27.2833 55.0486C27.9695 55.2042 28.2452 55.6855 28.4251 56.2901C28.5075 56.5261 28.5062 56.7834 28.4212 57.0186C28.3363 57.2537 28.1729 57.4525 27.9586 57.5814C27.8768 57.6418 27.8227 57.7426 27.7381 57.7961C26.0304 58.8697 26.4916 60.4841 26.6651 62.0361C26.9904 64.941 27.2992 67.8475 27.6156 70.7527C27.8896 73.2697 28.158 75.7872 28.4429 78.303C28.5162 78.7723 28.4465 79.2528 28.2427 79.6818C27.3237 81.5254 26.42 83.3754 25.5091 85.2237C25.4484 85.3468 25.4325 85.5301 25.249 85.5284C25.0655 85.5267 25.0479 85.349 24.9864 85.2246C24.0494 83.3216 23.1118 81.4186 22.1736 79.5156C21.9475 79.0589 22.021 78.5835 22.0681 78.1184C22.5116 73.7554 22.9633 69.3939 23.4232 65.0337C23.5978 63.3759 23.7967 61.7197 24.0047 60.0661C24.0796 59.4729 23.9888 58.9783 23.4976 58.5745C23.1771 58.284 22.8716 57.9772 22.5825 57.6555C22.1127 57.1807 21.8748 56.644 22.1433 55.9787C22.2624 55.6789 22.4692 55.422 22.7367 55.2416C23.0041 55.0612 23.3198 54.9657 23.6424 54.9675C24.1765 54.9288 24.7146 54.9589 25.3247 54.9589Z" fill="#D7A34F"/>
<path fill-rule="evenodd" clip-rule="evenodd" d="M24.0067 77.6143C24.5058 77.7295 24.9769 77.9433 25.3922 78.2431C25.5281 78.3464 25.6598 78.506 25.5841 78.6609C25.3179 79.2587 24.8972 79.7747 24.3651 80.1558C24.2084 80.2616 24.0415 80.1742 23.9023 80.0892C23.5958 79.926 23.3058 79.7336 23.0362 79.5147C22.7541 79.2554 22.3219 79.0254 22.5257 78.5141C22.6649 78.2415 22.877 78.013 23.1386 77.8541C23.4001 77.6952 23.7007 77.6122 24.0067 77.6143V77.6143Z" fill="#B87124"/>
<path fill-rule="evenodd" clip-rule="evenodd" d="M26.3437 55.4744C26.3846 55.4773 26.4247 55.4867 26.4626 55.5022C26.8091 55.7103 27.5081 55.3318 27.5384 55.8086C27.6167 56.5068 27.4156 57.2076 26.979 57.758C26.9095 57.8344 26.818 57.8873 26.7171 57.9096C26.6163 57.9318 26.511 57.9223 26.4159 57.8822C26.1204 57.8025 25.8196 57.7404 25.5186 57.6834C24.7321 57.5332 24.6299 57.357 24.8987 56.5942C25.2373 55.6334 25.4751 55.4488 26.3437 55.4744Z" fill="#B87124"/>
<path fill-rule="evenodd" clip-rule="evenodd" d="M24.0612 74.8917C23.624 74.9638 23.4697 74.6205 23.2814 74.286C23.1975 74.1538 23.1663 73.995 23.1939 73.8409C23.2215 73.6868 23.3061 73.5486 23.4307 73.4539C23.7407 73.1609 24.074 72.6989 24.4736 72.7605C25.1066 72.8579 25.7948 72.8997 26.3529 73.2862C26.6414 73.4859 26.4704 73.7137 26.3027 73.914C25.9404 74.3484 24.7293 74.8875 24.0612 74.8917Z" fill="#B87124"/>
<path fill-rule="evenodd" clip-rule="evenodd" d="M26.2581 75.225C26.6455 75.5478 27.6831 74.9131 27.6948 75.9549C27.7062 76.9452 27.0025 77.6537 26.3536 77.581C25.6763 77.5033 25.1976 77.0184 25.2675 76.4812C25.3603 75.7736 25.7847 75.176 26.2581 75.225Z" fill="#B87124"/>
<path fill-rule="evenodd" clip-rule="evenodd" d="M27.1165 69.4584C27.1229 69.9087 26.9934 70.1841 26.5595 70.1654C25.3412 70.1125 25.0972 69.9321 25.1493 69.0568C25.1771 68.5834 25.1381 67.9654 25.7826 67.891C26.5788 67.7991 27.1327 68.5374 27.1165 69.4584Z" fill="#B87124"/>
<path fill-rule="evenodd" clip-rule="evenodd" d="M23.4048 70.8963C23.4176 70.3672 23.3351 69.8102 23.7668 69.3847C24.1985 68.9592 24.4413 69.0363 24.6376 69.5997C24.9997 70.6398 24.3622 71.4171 23.9559 72.2437C23.8128 72.5341 23.6273 72.3369 23.5306 72.1153C23.3585 71.7212 23.4142 71.3057 23.4048 70.8963Z" fill="#B97124"/>
<path fill-rule="evenodd" clip-rule="evenodd" d="M24.4555 62.5029C25.5667 62.4472 26.0209 63.3759 26.6539 64.0042C26.8767 64.227 26.5648 64.3802 26.3601 64.3504C25.5412 64.2719 24.758 63.9765 24.0913 63.4946C23.9696 63.4128 23.8774 63.2941 23.8285 63.1559C23.7795 63.0177 23.7764 62.8675 23.8195 62.7273C23.9275 62.4118 24.2261 62.5268 24.4555 62.5029Z" fill="#B97124"/>
<path fill-rule="evenodd" clip-rule="evenodd" d="M26.2641 61.4248C26.2626 61.5887 26.2453 61.7521 26.2126 61.9127C26.1332 62.1803 26.004 62.3703 25.6834 62.1355C25.3685 61.9058 25.0387 61.6947 24.7087 61.4869C24.3347 61.2524 24.3467 60.9636 24.5954 60.6609C24.7819 60.4414 24.9828 60.2345 25.1966 60.0416C25.3724 59.8778 25.5058 59.5442 25.7472 59.6043C26.0535 59.6809 26.06 60.0677 26.1034 60.3284C26.163 60.6907 26.3323 61.0441 26.2641 61.4248Z" fill="#B97124"/>
<path fill-rule="evenodd" clip-rule="evenodd" d="M26.8697 66.0356C26.8697 66.6558 26.3996 66.951 25.8373 66.6761C25.6719 66.5956 25.5213 66.4854 25.3606 66.394C25.084 66.2364 24.7003 66.164 24.7713 65.717C24.8398 65.2854 25.2169 65.1213 25.548 65.0091C26.1412 64.8089 26.8697 65.406 26.8697 66.0356Z" fill="#B97124"/>
<path fill-rule="evenodd" clip-rule="evenodd" d="M24.3085 56.4148C24.0609 56.749 24.1774 57.4132 23.6516 57.5683C23.1932 57.7039 22.3878 56.8468 22.4246 56.3912C22.4524 56.0291 22.9478 55.4808 23.2322 55.4939C23.6115 55.5117 24.3238 56.0787 24.3085 56.4148Z" fill="#B97124"/>
<path fill-rule="evenodd" clip-rule="evenodd" d="M26.0774 72.7661C25.5923 72.7839 25.4155 72.5333 25.6146 72.1041C25.7528 71.8289 25.9085 71.5627 26.0808 71.3074C26.1498 71.1901 26.2597 71.1023 26.3893 71.0609C26.519 71.0195 26.6594 71.0273 26.7837 71.0829C26.9757 71.1297 27.1507 71.2297 27.2886 71.3713C27.4265 71.513 27.5218 71.6906 27.5634 71.8839C27.6136 72.1732 27.3621 72.3392 27.1153 72.4829C26.7814 72.6773 26.3943 72.6363 26.0774 72.7661Z" fill="#B97124"/>
<path fill-rule="evenodd" clip-rule="evenodd" d="M26.1415 80.8354C25.452 80.8304 25.3807 80.724 25.662 80.1609C25.7717 79.9409 25.9184 79.7395 26.0421 79.5265C26.1164 79.3872 26.2407 79.2813 26.3899 79.2299C26.5392 79.1785 26.7023 79.1854 26.8466 79.2494C27.0257 79.3054 27.1864 79.4084 27.3121 79.5477C27.4377 79.6869 27.5238 79.8573 27.5612 80.0411C27.6258 80.3842 27.2958 80.5291 27.0488 80.6591C26.7709 80.8075 26.4548 80.8689 26.1415 80.8354V80.8354Z" fill="#B97124"/>
<path fill-rule="evenodd" clip-rule="evenodd" d="M23.5216 67.551C23.5494 67.1494 23.438 66.6796 23.9348 66.4928C24.0455 66.4329 24.1742 66.4156 24.2968 66.444C24.4194 66.4724 24.5274 66.5446 24.6004 66.6471C24.7043 66.7997 24.7667 66.9767 24.7814 67.1608C24.796 67.3448 24.7624 67.5295 24.684 67.6967C24.6354 67.7876 24.5654 67.8654 24.4801 67.9234C24.2336 68.1041 24.1061 68.5795 23.7455 68.4369C23.3848 68.2943 23.5594 67.8593 23.5216 67.551Z" fill="#B97124"/>
<path fill-rule="evenodd" clip-rule="evenodd" d="M24.5006 76.2013C24.4318 76.4288 24.385 76.7076 24.0397 76.7371C23.7136 76.7649 22.8926 76.2433 22.9229 76.0016C22.9362 75.8252 23.0188 75.6613 23.1527 75.5457C23.2866 75.4302 23.4608 75.3724 23.6373 75.385C23.7476 75.3816 23.8576 75.4001 23.9608 75.4393C24.064 75.4785 24.1584 75.5378 24.2387 75.6136C24.3189 75.6895 24.3833 75.7804 24.4283 75.8813C24.4732 75.9821 24.4978 76.0909 24.5006 76.2013Z" fill="#B97225"/>
<path fill-rule="evenodd" clip-rule="evenodd" d="M25.2643 81.7757C25.2729 82.0718 25.2103 82.3088 24.8446 82.3216C24.5043 82.3333 23.6624 81.8437 23.7028 81.612C23.738 81.4401 23.8297 81.285 23.9633 81.1713C24.0969 81.0576 24.2647 80.9919 24.44 80.9846C24.5479 80.9747 24.6566 80.9882 24.7588 81.024C24.861 81.0598 24.9544 81.1172 25.0325 81.1922C25.1107 81.2672 25.1718 81.3581 25.2118 81.4588C25.2518 81.5595 25.2697 81.6676 25.2643 81.7757V81.7757Z" fill="#B97125"/>
<path fill-rule="evenodd" clip-rule="evenodd" d="M25.2636 83.1841C25.4585 83.3537 25.9904 83.1122 25.9453 83.5985C25.9088 83.9884 25.8122 84.4738 25.1886 84.4359C24.8155 84.4136 24.598 84.293 24.6431 83.8914C24.6829 83.535 24.7511 83.1913 25.2636 83.1841Z" fill="#B97225"/>
<path fill-rule="evenodd" clip-rule="evenodd" d="M24.7466 58.2627C24.8362 58.2582 24.9256 58.2738 25.0083 58.3084C25.091 58.343 25.1649 58.3958 25.2245 58.4627C25.2841 58.5297 25.3279 58.6092 25.3527 58.6954C25.3774 58.7815 25.3826 58.8722 25.3677 58.9606C25.361 59.1926 25.2061 59.4365 24.9315 59.3418C24.5974 59.2265 24.1487 59.1107 24.1287 58.6985C24.1402 58.6292 24.1655 58.5628 24.2029 58.5032C24.2403 58.4437 24.2892 58.3921 24.3466 58.3516C24.4041 58.311 24.4691 58.2823 24.5377 58.2671C24.6064 58.2518 24.6774 58.2503 24.7466 58.2627V58.2627Z" fill="#B97225"/>
<path fill-rule="evenodd" clip-rule="evenodd" d="M24.6909 64.7129C24.6319 64.9541 24.6099 65.2028 24.3094 65.2209C24.0702 65.2353 23.9092 65.1301 23.9081 64.8708C23.9011 64.8194 23.9061 64.767 23.9226 64.7178C23.9391 64.6686 23.9668 64.6238 24.0033 64.587C24.0399 64.5502 24.0845 64.5223 24.1336 64.5055C24.1828 64.4887 24.2351 64.4834 24.2866 64.4901C24.4651 64.4921 24.67 64.465 24.6909 64.7129Z" fill="#B97225"/>
<path fill-rule="evenodd" clip-rule="evenodd" d="M27.6367 78.1692C27.7573 78.2922 28.1068 78.1352 28.0405 78.4176C27.9659 78.7356 27.6181 78.7796 27.3376 78.8041C27.2039 78.8163 27.0313 78.6635 27.0839 78.5225C27.1689 78.2967 27.327 78.0898 27.6367 78.1692Z" fill="#BA7427"/>
<path fill-rule="evenodd" clip-rule="evenodd" d="M26.5577 82.0651C26.5001 82.2631 26.4611 82.4906 26.1723 82.4246C26.0247 82.3912 25.8278 82.3809 25.8487 82.1461C25.8743 81.8492 26.069 81.7933 26.3235 81.8183C26.4798 81.8334 26.6171 81.8545 26.5577 82.0651Z" fill="#BB7527"/>
<path d="M70.6181 26.5588L72.8101 26.1428C72.9381 26.2068 73.0821 26.2708 73.3061 26.2708C73.7381 26.2708 73.9941 25.9028 73.9941 25.5028C73.9941 25.0228 73.7061 24.7508 73.2901 24.7508C73.0981 24.7508 72.9701 24.7828 72.7941 24.8628L70.3781 25.2948C70.1061 25.1348 69.4501 25.2308 69.2261 25.5028L67.0981 25.9188C66.9861 25.8548 66.9061 25.8068 66.6341 25.8068C66.2821 25.8068 65.9781 26.1588 65.9781 26.6228C65.9781 27.0548 66.2661 27.3268 66.7141 27.3268C66.9061 27.3268 67.0821 27.2468 67.2101 27.1668L69.0821 26.7988V34.1908C69.0181 34.3188 68.9861 34.5268 68.9861 34.7508C68.9861 35.2148 69.2261 35.4228 69.7061 35.4228C70.4741 35.4228 70.7621 35.0868 70.7621 34.6548C70.7621 34.4788 70.6661 34.3348 70.6181 34.2548V26.5588ZM74.2494 34.3988C74.1374 34.4788 74.0414 34.6388 74.0414 34.7988C74.0414 35.2148 74.2814 35.4228 74.7934 35.4228C75.6574 35.4228 75.9294 35.1828 75.9294 34.7028C75.9294 34.5428 75.8334 34.3508 75.7374 34.2548V31.3268C76.5534 30.3668 77.4014 29.8228 77.6574 29.8228C77.7854 29.8228 77.8494 29.9828 77.8494 30.1748C77.8014 30.3028 77.7694 30.4468 77.7694 30.5908C77.7694 30.8628 78.0414 31.0228 78.5054 31.0228C79.0494 31.0228 79.3054 30.7348 79.3054 30.2868C79.3054 28.8148 78.8094 28.3348 78.3134 28.3348C77.5454 28.3348 76.6334 28.9588 75.7534 29.7588H75.7374V29.1988C75.8494 29.0708 75.8334 28.9428 75.8334 28.8308C75.8334 28.5108 75.5294 28.3028 75.0494 28.3028C74.5374 28.3028 74.1214 28.5748 74.1214 28.8788L74.2494 29.2948V34.3988ZM84.3514 30.7348C80.9914 31.1188 79.2474 32.9428 79.2474 34.3508C79.2474 35.1668 79.9034 35.6308 80.7194 35.6308C82.0474 35.6308 83.1514 35.0708 84.2874 33.8228H84.3194V34.5428C84.2554 34.6708 84.1914 34.7828 84.1914 34.9268C84.1914 35.2148 84.3354 35.4388 84.8634 35.4388C85.3594 35.4388 85.9194 35.3428 85.9194 34.8628C85.9194 34.7028 85.8714 34.5428 85.7914 34.4788V29.5828C85.7914 28.6708 85.1514 28.1428 84.3354 28.1428C82.8954 28.1428 81.7754 28.4948 80.9434 29.0228C80.6074 28.9588 80.2234 29.3748 80.2234 29.6788C80.2234 29.9988 80.5114 30.4308 80.8954 30.4308C81.3594 30.4308 81.5994 30.1108 81.5674 29.9828C82.1594 29.5988 82.8954 29.2948 83.7754 29.2948C84.1914 29.2948 84.3514 29.5028 84.3514 29.9188V30.7348ZM84.3194 32.2228C84.3194 32.9588 82.4314 34.3508 81.2474 34.3508C80.9434 34.3508 80.7194 34.2548 80.7194 33.9828C80.7194 33.2628 82.1914 31.9828 84.3194 31.7268V32.2228ZM88.7719 25.2788C88.1639 25.2788 87.8119 25.9188 87.8119 26.7348C87.8119 27.1828 88.0199 27.5028 88.5319 27.5028C89.0279 27.5028 89.4919 26.9588 89.4919 26.0148C89.4919 25.5508 89.2359 25.2788 88.7719 25.2788ZM89.4599 29.0868C89.4759 28.7508 89.0439 28.3348 88.6759 28.3348C87.6999 28.3348 87.6679 28.8148 87.6679 29.2628C87.6679 29.4068 87.7159 29.5828 87.8119 29.6788V34.1268C87.7479 34.2068 87.6199 34.3828 87.6199 34.6708C87.6199 35.1348 87.9239 35.4228 88.3399 35.4228C88.8359 35.4228 89.5079 35.1828 89.5079 34.6388C89.5079 34.4468 89.3799 34.2548 89.2999 34.1908V29.6148C89.3319 29.5188 89.4599 29.3588 89.4599 29.0868ZM92.7854 31.1028C94.3054 29.8228 94.8974 29.6148 95.0574 29.6148C95.1694 29.6148 95.4254 29.8068 95.4254 29.9188V34.3988C95.3454 34.5268 95.2814 34.6388 95.2814 34.8148C95.2814 35.1988 95.5534 35.4228 96.0974 35.4228C96.6894 35.4228 97.0094 35.2468 97.0094 34.7508C97.0094 34.5268 96.9454 34.4308 96.9134 34.3348V29.1188C96.9134 28.6068 96.2894 28.0628 95.7134 28.0628C95.1374 28.0628 94.4174 28.3828 92.7854 29.7428V29.1188C92.8494 29.0068 92.9454 28.8468 92.9454 28.6228C92.9454 28.2868 92.7694 28.0628 92.1614 28.0628C91.6654 28.0628 91.1694 28.3988 91.1694 28.7188C91.1694 28.9268 91.2174 29.0548 91.2974 29.1988V30.4788C91.1374 30.8788 91.0574 31.1508 91.0574 31.4068C91.0574 31.6628 91.1694 31.8548 91.2974 31.9348V34.4308C91.1534 34.5588 91.1054 34.6868 91.1054 34.8788C91.1054 35.2628 91.5054 35.4228 91.9054 35.4228C92.3374 35.4228 92.8974 35.2628 92.8974 34.8468C92.8974 34.6708 92.8654 34.5748 92.7854 34.4628V31.1028ZM99.7876 25.2788C99.1796 25.2788 98.8276 25.9188 98.8276 26.7348C98.8276 27.1828 99.0356 27.5028 99.5476 27.5028C100.044 27.5028 100.508 26.9588 100.508 26.0148C100.508 25.5508 100.252 25.2788 99.7876 25.2788ZM100.476 29.0868C100.492 28.7508 100.06 28.3348 99.6916 28.3348C98.7156 28.3348 98.6836 28.8148 98.6836 29.2628C98.6836 29.4068 98.7316 29.5828 98.8276 29.6788V34.1268C98.7636 34.2068 98.6356 34.3828 98.6356 34.6708C98.6356 35.1348 98.9396 35.4228 99.3556 35.4228C99.8516 35.4228 100.524 35.1828 100.524 34.6388C100.524 34.4468 100.396 34.2548 100.316 34.1908V29.6148C100.348 29.5188 100.476 29.3588 100.476 29.0868ZM103.801 31.1028C105.321 29.8228 105.913 29.6148 106.073 29.6148C106.185 29.6148 106.441 29.8068 106.441 29.9188V34.3988C106.361 34.5268 106.297 34.6388 106.297 34.8148C106.297 35.1988 106.569 35.4228 107.113 35.4228C107.705 35.4228 108.025 35.2468 108.025 34.7508C108.025 34.5268 107.961 34.4308 107.929 34.3348V29.1188C107.929 28.6068 107.305 28.0628 106.729 28.0628C106.153 28.0628 105.433 28.3828 103.801 29.7428V29.1188C103.865 29.0068 103.961 28.8468 103.961 28.6228C103.961 28.2868 103.785 28.0628 103.177 28.0628C102.681 28.0628 102.185 28.3988 102.185 28.7188C102.185 28.9268 102.233 29.0548 102.313 29.1988V30.4788C102.153 30.8788 102.073 31.1508 102.073 31.4068C102.073 31.6628 102.185 31.8548 102.313 31.9348V34.4308C102.169 34.5588 102.121 34.6868 102.121 34.8788C102.121 35.2628 102.521 35.4228 102.921 35.4228C103.353 35.4228 103.913 35.2628 103.913 34.8468C103.913 34.6708 103.881 34.5748 103.801 34.4628V31.1028ZM115.651 29.1828C115.651 28.6068 115.315 28.3668 114.675 28.3668C111.283 28.3668 109.219 31.2788 109.219 33.8388C109.219 34.8308 109.747 35.6308 110.979 35.6308C112.179 35.6308 113.571 34.6228 114.195 33.0548C114.195 33.8548 114.179 34.6708 114.179 35.4708C114.179 37.0708 113.187 37.5668 112.435 37.5668C111.987 37.5668 111.539 37.4548 111.267 37.2468C111.203 36.9588 110.963 36.7828 110.675 36.7828C110.259 36.7828 109.971 37.1348 109.971 37.6148C109.971 38.2388 111.027 38.7668 112.355 38.7668C113.843 38.7668 115.651 37.7588 115.651 35.6148V29.1828ZM111.171 34.3348C110.867 34.3348 110.691 34.0468 110.691 33.5988C110.691 31.6788 112.259 29.5668 114.179 29.5668V29.5828C114.131 30.3188 113.971 30.9748 113.747 31.5508C113.107 33.3908 111.827 34.3348 111.171 34.3348ZM124.579 29.1028C125.715 28.3988 126.483 27.4388 126.483 26.3508C126.483 25.3428 125.507 24.7988 123.779 24.7988C122.211 24.7988 121.475 25.6148 121.475 26.2868C121.475 27.2948 121.971 28.0468 122.499 28.7348C121.155 29.4228 119.859 30.6548 119.859 32.6068C119.859 34.8948 121.251 35.6468 122.531 35.6468C124.035 35.6468 125.315 35.0228 126.499 33.6788L127.539 34.9908C127.571 35.2948 127.763 35.4068 128.003 35.4068C128.627 35.4068 129.555 34.4948 129.555 33.9828C129.555 33.7268 129.427 33.5028 129.123 33.5028C128.803 33.5028 128.563 33.8708 128.387 33.8708C128.259 33.8708 127.555 32.8788 127.379 32.6548C127.731 32.1908 128.067 31.4708 128.211 31.1028C128.419 31.1028 128.547 30.8308 128.547 30.6548C128.547 30.3188 128.099 29.9028 127.539 29.9028C127.235 29.9028 127.075 30.1108 127.075 30.3188C127.091 30.6388 126.995 30.9108 126.547 31.6148L124.579 29.1028ZM123.843 25.8548C124.579 25.8548 125.091 25.9988 125.091 26.4628C125.091 26.8628 124.643 27.7268 123.779 28.1428C123.219 27.5508 122.899 26.9108 122.899 26.4948C122.899 26.0628 123.315 25.8548 123.843 25.8548ZM125.715 32.6708C124.787 33.7908 123.715 34.3348 122.803 34.3348C122.035 34.3348 121.331 33.6628 121.331 32.4948C121.331 30.9748 122.323 30.2548 123.299 29.7268L125.715 32.6708ZM137.76 24.8468C134.752 24.8468 132.864 28.8148 132.864 31.2148C132.864 34.2068 134.272 35.6308 136.24 35.6308C137.92 35.6468 139.488 34.5268 140.192 33.7748C140.576 33.3268 140.64 33.0388 140.64 32.7828C140.64 32.5268 140.384 32.1108 139.808 32.1108C139.136 32.1108 138.992 32.6068 138.96 33.0228C138.496 33.6628 137.424 34.2868 136.448 34.2868C135.456 34.2868 134.416 33.3588 134.416 31.3108C134.416 29.2948 135.856 26.1588 137.84 26.1588C138.576 26.1588 139.12 26.3988 139.168 26.6868C139.264 27.1188 139.472 27.3268 139.92 27.3268C140.416 27.3268 140.768 27.0228 140.768 26.4788C140.768 25.7108 139.552 24.8468 137.76 24.8468ZM145.998 28.1748C143.582 28.1748 141.566 30.2548 141.566 33.0868C141.566 34.8788 142.878 35.6308 143.774 35.6308C145.182 35.6308 145.966 35.3268 147.198 34.1108C147.582 33.7268 148.43 32.5428 148.43 31.1988C148.43 30.0468 147.966 28.1748 145.998 28.1748ZM145.694 29.4228C146.606 29.4228 146.926 30.2388 146.926 31.2788C146.926 32.1268 146.574 32.9588 145.966 33.5508C145.39 34.1108 144.83 34.3828 144.126 34.3828C143.55 34.3828 143.07 33.7748 143.07 32.8468C143.07 31.0388 144.398 29.4228 145.694 29.4228ZM154.07 30.7348C150.71 31.1188 148.966 32.9428 148.966 34.3508C148.966 35.1668 149.622 35.6308 150.438 35.6308C151.766 35.6308 152.87 35.0708 154.006 33.8228H154.038V34.5428C153.974 34.6708 153.91 34.7828 153.91 34.9268C153.91 35.2148 154.054 35.4388 154.582 35.4388C155.078 35.4388 155.638 35.3428 155.638 34.8628C155.638 34.7028 155.59 34.5428 155.51 34.4788V29.5828C155.51 28.6708 154.87 28.1428 154.054 28.1428C152.614 28.1428 151.494 28.4948 150.662 29.0228C150.326 28.9588 149.942 29.3748 149.942 29.6788C149.942 29.9988 150.23 30.4308 150.614 30.4308C151.078 30.4308 151.318 30.1108 151.286 29.9828C151.878 29.5988 152.614 29.2948 153.494 29.2948C153.91 29.2948 154.07 29.5028 154.07 29.9188V30.7348ZM154.038 32.2228C154.038 32.9588 152.15 34.3508 150.966 34.3508C150.662 34.3508 150.438 34.2548 150.438 33.9828C150.438 33.2628 151.91 31.9828 154.038 31.7268V32.2228ZM161.084 28.2388C160.22 28.2388 159.116 28.8628 158.668 29.3748C157.724 30.3508 157.02 31.2148 157.02 33.0548C157.02 34.5588 158.012 35.6468 159.596 35.6468C160.588 35.6468 161.324 35.3748 162.012 34.8308C162.924 34.1748 163.404 33.1668 163.404 32.9908C163.404 32.7508 163.228 32.3188 162.62 32.3188C162.108 32.3188 162.012 32.6388 161.916 33.0708C161.708 33.4708 161.324 33.8228 160.972 34.0308C160.652 34.2228 160.316 34.3668 159.948 34.3668C158.988 34.3668 158.492 33.7908 158.492 32.8148C158.492 31.7268 159.068 30.8148 159.612 30.2708C160.076 29.7588 160.556 29.4708 161.116 29.4708C161.66 29.4708 161.772 29.6788 161.868 29.8708C161.948 30.0628 162.028 30.2708 162.38 30.2708C163.02 30.2708 163.308 29.9348 163.308 29.4868C163.308 28.7988 162.316 28.2388 161.084 28.2388ZM169.082 34.3508C168.954 34.4788 168.922 34.7028 168.922 34.8788C168.922 35.2148 169.258 35.4228 169.754 35.4228C170.202 35.4228 170.698 35.0868 170.698 34.7188C170.698 34.5908 170.586 34.4628 170.57 34.3668V29.9508C170.57 28.8788 170.298 28.3668 169.45 28.3668C168.602 28.3668 167.482 28.8628 166.458 29.7908H166.426V26.0148C166.49 25.8708 166.57 25.6948 166.57 25.5348C166.57 25.1348 166.058 24.8148 165.802 24.8148C165.226 24.8148 164.794 25.1028 164.794 25.6308C164.794 25.7748 164.922 25.9508 164.938 26.0948V34.3828C164.858 34.4788 164.826 34.6548 164.826 34.9108C164.826 35.2468 165.002 35.4228 165.482 35.4228C165.994 35.4228 166.554 35.1668 166.554 34.7668C166.554 34.5748 166.506 34.4308 166.426 34.3188V31.3748C167.306 30.2388 168.282 29.9348 168.73 29.9348C169.002 29.9348 169.082 30.0788 169.082 30.6388V34.3508ZM173.475 25.2788C172.867 25.2788 172.515 25.9188 172.515 26.7348C172.515 27.1828 172.723 27.5028 173.235 27.5028C173.731 27.5028 174.195 26.9588 174.195 26.0148C174.195 25.5508 173.939 25.2788 173.475 25.2788ZM174.163 29.0868C174.179 28.7508 173.747 28.3348 173.379 28.3348C172.403 28.3348 172.371 28.8148 172.371 29.2628C172.371 29.4068 172.419 29.5828 172.515 29.6788V34.1268C172.451 34.2068 172.323 34.3828 172.323 34.6708C172.323 35.1348 172.627 35.4228 173.043 35.4228C173.539 35.4228 174.211 35.1828 174.211 34.6388C174.211 34.4468 174.083 34.2548 174.003 34.1908V29.6148C174.035 29.5188 174.163 29.3588 174.163 29.0868ZM177.489 31.1028C179.009 29.8228 179.601 29.6148 179.761 29.6148C179.873 29.6148 180.129 29.8068 180.129 29.9188V34.3988C180.049 34.5268 179.985 34.6388 179.985 34.8148C179.985 35.1988 180.257 35.4228 180.801 35.4228C181.393 35.4228 181.713 35.2468 181.713 34.7508C181.713 34.5268 181.649 34.4308 181.617 34.3348V29.1188C181.617 28.6068 180.993 28.0628 180.417 28.0628C179.841 28.0628 179.121 28.3828 177.489 29.7428V29.1188C177.553 29.0068 177.649 28.8468 177.649 28.6228C177.649 28.2868 177.473 28.0628 176.865 28.0628C176.369 28.0628 175.873 28.3988 175.873 28.7188C175.873 28.9268 175.921 29.0548 176.001 29.1988V30.4788C175.841 30.8788 175.761 31.1508 175.761 31.4068C175.761 31.6628 175.873 31.8548 176.001 31.9348V34.4308C175.857 34.5588 175.809 34.6868 175.809 34.8788C175.809 35.2628 176.209 35.4228 176.609 35.4228C177.041 35.4228 177.601 35.2628 177.601 34.8468C177.601 34.6708 177.569 34.5748 177.489 34.4628V31.1028ZM189.339 29.1828C189.339 28.6068 189.003 28.3668 188.363 28.3668C184.971 28.3668 182.907 31.2788 182.907 33.8388C182.907 34.8308 183.435 35.6308 184.667 35.6308C185.867 35.6308 187.259 34.6228 187.883 33.0548C187.883 33.8548 187.867 34.6708 187.867 35.4708C187.867 37.0708 186.875 37.5668 186.123 37.5668C185.675 37.5668 185.227 37.4548 184.955 37.2468C184.891 36.9588 184.651 36.7828 184.363 36.7828C183.947 36.7828 183.659 37.1348 183.659 37.6148C183.659 38.2388 184.715 38.7668 186.043 38.7668C187.531 38.7668 189.339 37.7588 189.339 35.6148V29.1828ZM184.859 34.3348C184.555 34.3348 184.379 34.0468 184.379 33.5988C184.379 31.6788 185.947 29.5668 187.867 29.5668V29.5828C187.819 30.3188 187.659 30.9748 187.435 31.5508C186.795 33.3908 185.515 34.3348 184.859 34.3348Z" fill="black"/>
<path d="M76.2583 42.9757C70.9943 42.9757 67.6903 49.9197 67.6903 54.1197C67.6903 59.3557 70.1543 61.8478 73.5983 61.8478C76.5383 61.8758 79.2823 59.9157 80.5143 58.5997C81.1863 57.8157 81.2983 57.3117 81.2983 56.8637C81.2983 56.4157 80.8503 55.6877 79.8423 55.6877C78.6663 55.6877 78.4143 56.5557 78.3583 57.2837C77.5463 58.4037 75.6703 59.4958 73.9623 59.4958C72.2263 59.4958 70.4063 57.8717 70.4063 54.2877C70.4063 50.7597 72.9263 45.2717 76.3983 45.2717C77.6863 45.2717 78.6383 45.6917 78.7223 46.1957C78.8903 46.9518 79.2543 47.3157 80.0383 47.3157C80.9063 47.3157 81.5223 46.7837 81.5223 45.8317C81.5223 44.4877 79.3943 42.9757 76.2583 42.9757ZM92.4042 42.4717C87.4762 42.4717 83.1362 48.9117 83.1362 54.5117C83.1362 57.6197 84.5922 61.8478 89.1282 61.8478C94.3642 61.8478 98.6482 57.2837 98.6482 51.1517C98.6482 44.8237 95.6242 42.4717 92.4042 42.4717ZM92.0962 44.7117C94.4202 44.7117 95.8482 46.8677 95.8482 51.2357C95.8482 56.0797 92.6842 59.6077 89.6322 59.6077C86.9442 59.6077 85.9362 56.7517 85.9362 54.1757C85.9362 49.8077 89.1842 44.7117 92.0962 44.7117ZM101.312 60.1677C101.312 60.8957 101.76 61.4838 102.796 61.4838C103.832 61.4838 104.336 60.9237 104.336 60.1957C104.336 59.7197 104.196 59.4117 104 59.2157C104 56.0517 104 52.8037 103.916 49.6957H104C105.876 53.1397 108.564 57.7597 108.564 59.8317C108.564 60.6997 108.956 61.3438 110.16 61.3438C110.972 61.3438 111.532 61.0637 111.56 60.3637C111.644 58.3477 115.312 52.6917 116.992 49.8077H117.048C116.964 53.0557 116.964 56.3317 116.964 59.4958C116.768 59.6917 116.656 59.9997 116.656 60.3637C116.656 61.0637 117.076 61.4838 118.14 61.4838C118.98 61.4838 119.792 61.0357 119.792 60.1677C119.792 59.8877 119.736 59.5797 119.54 59.3837V45.4397C119.624 45.2437 119.736 44.9077 119.736 44.5997C119.736 43.7597 119.12 43.2277 117.86 43.2277C117.02 43.2277 116.46 43.5917 116.46 44.1517C116.46 44.4877 116.544 45.0197 116.544 45.3557C116.292 48.0437 111.476 52.7477 110.3 56.8637H110.216C109.236 52.6917 104.476 46.9518 104.364 44.4317C104.364 43.7877 103.916 43.3677 103.048 43.3397C102.096 43.3677 101.508 43.7317 101.536 44.7397V59.2997C101.368 59.4677 101.312 59.8597 101.312 60.1677ZM123.269 59.9997C123.269 60.7557 123.661 61.4838 124.585 61.4838C125.537 61.4838 126.517 61.1757 126.517 60.0837C126.517 59.7477 126.349 59.3837 126.265 59.2157V53.7557L136.093 60.9237C136.345 61.4278 136.877 61.6798 137.409 61.6798C138.221 61.6798 139.089 61.1197 139.089 60.0277C139.089 59.3557 138.193 58.5437 137.269 58.9077L128.197 52.3557C133.881 51.3757 137.017 49.0797 137.017 46.2517C137.017 44.4037 135.393 43.3397 133.125 43.3397C130.885 43.3397 128.645 43.8438 126.265 44.9077V44.6277C126.573 43.6757 125.901 43.0037 125.033 43.0037C124.221 43.0037 123.437 43.5077 123.437 44.3197C123.437 44.5997 123.549 44.9357 123.633 45.1317V45.7197C123.157 45.8877 122.765 46.3357 122.765 47.2877C122.765 48.0157 123.101 48.3517 123.381 48.3517C123.493 48.3517 123.549 48.3517 123.633 48.2957V59.1037C123.493 59.3277 123.269 59.7197 123.269 59.9997ZM126.265 47.0637C128.645 45.9437 130.829 45.5517 132.397 45.5517C133.517 45.5517 134.217 45.9717 134.217 46.6437C134.217 48.6597 130.633 50.0597 126.265 50.9837V47.0637ZM150.776 54.5957C152.344 58.0677 152.624 58.9917 152.624 59.4117C152.624 59.6637 152.456 59.9717 152.456 60.4198C152.456 61.0357 153.072 61.4838 153.94 61.4838C154.948 61.4838 155.592 60.8677 155.592 59.8317C155.592 58.8517 154.304 55.9957 152.232 51.7677C151.56 50.2277 149.096 45.6917 149.096 44.8237C149.096 44.4317 149.292 44.2637 149.292 43.7877C149.292 43.3117 148.788 42.7237 147.836 42.7237C146.8 42.7237 146.184 43.6197 146.212 44.5997C146.1 45.1597 145.82 45.8317 145.232 46.9237L140.36 56.4997C139.352 58.5717 138.82 59.5797 138.82 60.1957C138.82 60.8677 139.24 61.4838 140.276 61.4838C141.564 61.4838 141.928 60.9237 141.928 60.3077C141.928 59.9437 141.9 59.4677 141.956 59.0757C142.04 58.6277 142.348 58.0397 143.86 55.0437L150.776 54.5957ZM144.952 52.8317L147.584 47.3438L149.852 52.4957L144.952 52.8317ZM157.636 60.5037C157.636 61.3157 158.168 61.7358 159.316 61.7358C161.92 61.7358 166.288 60.3917 169.116 57.6757C171.3 55.5477 172.504 52.5797 172.504 49.4157C172.504 46.2797 169.844 43.0877 166.372 43.0877C164.048 43.0877 162.368 43.5637 160.632 44.4037C160.772 43.8157 160.464 43.1157 159.456 43.1157C158.28 43.1157 157.776 43.8157 157.776 44.3197C157.776 44.7397 157.888 45.0477 157.972 45.2437V59.3837C157.748 59.6357 157.636 59.9437 157.636 60.5037ZM160.632 46.8117C162.312 45.8597 164.104 45.3557 165.756 45.3557C168.108 45.3557 169.704 47.6237 169.704 49.6677C169.704 52.2437 168.808 54.2597 167.268 56.0797C165.448 58.0397 162.844 58.9637 160.632 59.1597V46.8117ZM178.054 53.5877L183.654 52.8877C183.85 52.9997 184.074 53.0837 184.298 53.0837C185.334 53.0837 185.95 52.6357 185.95 51.6557C185.95 50.9277 185.334 50.1997 184.41 50.1997C184.046 50.1997 183.682 50.3957 183.402 50.5917L178.054 51.2637V46.5877L184.774 45.9717C185.082 46.1117 185.362 46.1957 185.726 46.1957C186.706 46.1957 187.35 45.5238 187.35 44.5437C187.35 43.8717 186.818 43.2557 185.754 43.2557C185.418 43.2557 184.998 43.4797 184.718 43.6757L178.054 44.2637C178.054 43.6757 177.55 43.2277 176.626 43.2277C175.758 43.2277 175.058 43.6477 175.058 44.2357C175.058 44.4037 175.086 44.5717 175.198 44.6837C174.946 44.8798 174.778 45.2437 174.778 45.7757C174.778 46.2237 174.946 46.6437 175.366 46.8677V51.3477C175.142 51.5717 174.862 52.1037 174.862 52.6357C174.862 53.1677 175.03 53.6157 175.366 53.9237V59.1877C175.17 59.4958 175.002 59.9717 175.002 60.4198C175.002 61.3718 175.702 61.8478 176.486 61.8478C177.298 61.8478 177.858 61.6238 178.082 61.3718L185.978 60.8117C187.462 60.8117 188.246 60.5877 188.246 59.3837C188.246 58.7957 187.63 58.0677 186.678 58.0677C186.314 58.0677 186.006 58.2357 185.782 58.4877L178.054 59.0197V53.5877Z" fill="#8A4D00"/>
</svg>
