<svg width="58" height="58" viewBox="0 0 58 58" fill="none" xmlns="http://www.w3.org/2000/svg">
<path d="M57.735 42.7507H55.7199C55.9123 38.5793 54.567 35.0296 51.8375 32.6436C50.6886 31.6394 48.7808 29.9654 48.7141 21.7057C51.0752 20.1836 52.6464 17.5364 52.6464 14.5236C52.6464 9.81215 48.8134 5.97882 44.1017 5.97882C43.3028 5.97882 42.5317 6.09695 41.7976 6.30308L41.7972 0.123047H7.81001V31.7412H0.897461V52.2632H19.1152L19.1148 57.1521H39.6367V49.4717H57.7341L57.735 42.7507ZM50.3459 34.4007C52.5298 36.3098 53.5991 39.2488 53.4138 42.7507H39.6368V36.6301H35.9742C36.4576 35.8618 37.2114 34.9641 37.8572 34.3995L38.0658 34.2203C39.473 33.0236 41.5609 31.2428 41.7774 22.7393C42.5172 22.9491 43.2951 23.0688 44.1016 23.0688C44.9085 23.0688 45.6876 22.9491 46.4281 22.7389C46.6656 31.178 48.9355 33.1686 50.3459 34.4009L50.3459 34.4007ZM50.3419 14.5238C50.3419 17.965 47.5428 20.7641 44.1016 20.7641C40.6599 20.7641 37.8608 17.965 37.8608 14.5238C37.8608 11.0821 40.6599 8.28304 44.1016 8.28304C47.5428 8.28304 50.3419 11.0821 50.3419 14.5238ZM10.1137 2.42662H39.4925V7.33975C37.1289 8.86105 35.5562 11.5099 35.5562 14.524C35.5562 17.5368 37.127 20.1844 39.4888 21.7061C39.4289 30.0303 37.7147 31.4945 36.5727 32.466L36.3405 32.6653C35.6803 33.2431 34.026 34.9726 33.4108 36.6309L21.4186 36.6305V31.7416H10.1135L10.1137 2.42662ZM3.20115 49.9583V34.0448H19.1147V49.9583H3.20115ZM37.3324 54.8473H21.4189V38.9338H37.3324V54.8473ZM55.4298 47.1664H39.6356V45.054H55.4298V47.1664Z" fill="#8A4D00"/>
<path d="M33.3855 21.34L24.8029 9.30969L16.2207 21.34L24.8029 33.3723L33.3855 21.34ZM24.8029 13.2765L30.5546 21.3404L24.8029 29.4038L19.0512 21.34L24.8029 13.2765Z" fill="#8A4D00"/>
<path d="M7.87028 36.6281C6.85247 36.6281 6.02393 37.4566 6.02393 38.4744C6.02393 39.4922 6.85249 40.3199 7.87028 40.3199C8.88808 40.3199 9.71664 39.4914 9.71664 38.4744C9.71624 37.4562 8.88848 36.6281 7.87028 36.6281Z" fill="#8A4D00"/>
<path d="M14.7089 36.6281C13.6911 36.6281 12.8625 37.4566 12.8625 38.4744C12.8625 39.4922 13.6911 40.3199 14.7089 40.3199C15.7267 40.3199 16.5544 39.4914 16.5544 38.4744C16.5544 37.4562 15.7259 36.6281 14.7089 36.6281Z" fill="#8A4D00"/>
<path d="M7.87028 43.4532C6.85247 43.4532 6.02393 44.2818 6.02393 45.2988C6.02393 46.3174 6.85249 47.1451 7.87028 47.1451C8.88808 47.1451 9.71664 46.3166 9.71664 45.2988C9.71624 44.281 8.88848 43.4532 7.87028 43.4532Z" fill="#8A4D00"/>
<path d="M14.7089 43.4532C13.6911 43.4532 12.8625 44.2818 12.8625 45.2988C12.8625 46.3174 13.6911 47.1451 14.7089 47.1451C15.7267 47.1451 16.5544 46.3166 16.5544 45.2988C16.5544 44.281 15.7259 43.4532 14.7089 43.4532Z" fill="#8A4D00"/>
<path d="M26.6239 42.2467C25.6699 42.2467 24.894 43.0226 24.894 43.9765C24.894 44.9304 25.67 45.7071 26.6239 45.7071C27.5777 45.7071 28.3537 44.9308 28.3537 43.9765C28.3537 43.0226 27.5777 42.2467 26.6239 42.2467Z" fill="#8A4D00"/>
<path d="M32.3197 47.931C31.3657 47.931 30.5898 48.7074 30.5898 49.6617C30.5898 50.6156 31.3658 51.3915 32.3197 51.3915C33.2736 51.3915 34.0503 50.6155 34.0503 49.6617C34.0499 48.7077 33.2736 47.931 32.3197 47.931Z" fill="#8A4D00"/>
</svg>
