<svg width="58" height="58" viewBox="0 0 58 58" fill="none" xmlns="http://www.w3.org/2000/svg">
<path d="M29.1243 29.9709C31.7236 29.9709 34.2164 28.9383 36.0545 27.1003C37.8926 25.2622 38.9251 22.7695 38.9251 20.1701C38.9251 17.5706 37.8925 15.0779 36.0545 13.2399C34.2164 11.4018 31.7237 10.3693 29.1243 10.3693C26.5249 10.3693 24.0322 11.4019 22.1941 13.2399C20.356 15.0779 19.3235 17.5706 19.3235 20.1701C19.3231 22.7694 20.3557 25.2626 22.1938 27.1006C24.0318 28.9386 26.525 29.9712 29.1243 29.9709ZM29.1243 12.1512C31.2512 12.1512 33.2908 12.9961 34.7944 14.5C36.2984 16.0035 37.1431 18.0432 37.1431 20.1701C37.1431 22.2969 36.2983 24.3366 34.7944 25.8402C33.2908 27.3442 31.2512 28.1889 29.1243 28.1889C26.9974 28.1889 24.9578 27.3441 23.4542 25.8402C21.9502 24.3366 21.1055 22.2969 21.1055 20.1701C21.1078 18.044 21.9535 16.0059 23.4566 14.5024C24.9602 12.9992 26.9983 12.1537 29.1243 12.1512Z" fill="#8A4D00"/>
<path d="M2.71135 12.4852C2.39155 12.9482 2.23602 13.5051 2.27063 14.0662C2.3112 14.7213 2.59162 15.3378 3.0582 15.7993L3.64927 16.3912C4.14926 16.892 4.82629 17.1756 5.53388 17.1811C6.0442 17.1835 6.54259 17.0288 6.96179 16.7376C7.08033 17.3343 7.4037 17.8705 7.87625 18.2535C8.34839 18.6366 8.94023 18.8418 9.54804 18.8343H10.3885C10.9967 18.8418 11.5881 18.6362 12.0607 18.2531C12.5328 17.8697 12.8562 17.3335 12.9744 16.7364C13.3936 17.0284 13.8924 17.1835 14.4031 17.1811C15.1099 17.1763 15.7861 16.8927 16.2857 16.3924L16.8811 15.7969C17.3159 15.3717 17.5883 14.8081 17.6512 14.2031C17.714 13.5985 17.5633 12.9908 17.2252 12.4852C17.8218 12.3675 18.3584 12.0441 18.7419 11.5715C19.1253 11.099 19.331 10.5076 19.3234 9.89894V9.05887C19.331 8.45029 19.1253 7.85884 18.7419 7.38627C18.3588 6.91413 17.8223 6.59074 17.2252 6.473C17.5633 5.96785 17.714 5.36004 17.6516 4.75549C17.5887 4.1509 17.3167 3.58724 16.8819 3.16242L16.2853 2.56617C15.7865 2.06539 15.1103 1.78139 14.4035 1.77622C13.8928 1.77423 13.3936 1.92936 12.974 2.22131C12.8562 1.62467 12.5328 1.08809 12.0607 0.705014C11.5882 0.321576 10.9967 0.115927 10.3885 0.123493H9.54804C8.93986 0.115935 8.34842 0.321576 7.87584 0.704617C7.4037 1.08766 7.07992 1.62384 6.96178 2.22051C6.54294 1.92935 6.04415 1.77422 5.53346 1.77621C4.82664 1.78178 4.15004 2.06538 3.65048 2.56616L3.05543 3.16161C2.55544 3.65961 2.27184 4.33465 2.26587 5.04021C2.26309 5.55212 2.41822 6.05251 2.71018 6.47291C2.11353 6.59105 1.57695 6.91402 1.19387 7.38657C0.810833 7.85871 0.605194 8.45056 0.61275 9.05877V9.89923V9.89884C0.605192 10.5074 0.810834 11.0993 1.19427 11.5718C1.57771 12.044 2.1143 12.3674 2.71128 12.4851L2.71135 12.4852ZM2.39473 9.05891C2.37007 8.62018 2.70419 8.2439 3.14292 8.21646H4.21485C4.364 7.53708 4.6325 6.88996 5.00759 6.30446L4.24906 5.54593C3.95829 5.21658 3.98813 4.71382 4.31588 4.42146L4.91013 3.82681C5.07441 3.65857 5.29835 3.5619 5.53342 3.55833C5.72117 3.55594 5.90175 3.62873 6.035 3.76039L6.79313 4.51852C7.37864 4.14343 8.02615 3.87534 8.70513 3.72659V2.65384C8.73258 2.21511 9.10926 1.88059 9.54798 1.90565H10.3884C10.8272 1.88099 11.2035 2.21511 11.2305 2.65384V3.72659C11.9099 3.87495 12.5578 4.14304 13.1429 4.51852L13.9014 3.76039H13.9018C14.0351 3.62873 14.2157 3.55595 14.4034 3.55833C14.6381 3.56191 14.862 3.65856 15.0259 3.82681L15.621 4.42146C15.9479 4.71461 15.977 5.21658 15.6866 5.54593L14.9293 6.30446C15.3043 6.88996 15.5724 7.53748 15.7212 8.21646H16.7927C17.2314 8.2439 17.566 8.62018 17.5413 9.05891V9.89938V9.89898C17.5656 10.3377 17.2314 10.714 16.7927 10.7418H15.7212C15.5724 11.4208 15.3039 12.0687 14.9293 12.6542L15.6866 13.4124V13.4128C15.977 13.7417 15.9479 14.2437 15.621 14.5368L15.0259 15.1319C14.8616 15.2997 14.6377 15.396 14.403 15.3992C14.2157 15.402 14.0355 15.3296 13.9018 15.1983L13.1429 14.4386C12.5578 14.8149 11.9103 15.0837 11.2305 15.2325V16.3049C11.2027 16.7428 10.8268 17.0765 10.3884 17.0522H9.54798C9.10965 17.0769 8.73337 16.7432 8.70513 16.3049V15.2325C8.02575 15.0834 7.37823 14.8145 6.79313 14.4386L6.035 15.1987V15.1983C5.90136 15.3296 5.72078 15.402 5.53382 15.3992C5.29875 15.396 5.07481 15.2997 4.91013 15.1319L4.31588 14.5368C3.98812 14.2445 3.9583 13.7417 4.24906 13.4128L5.00759 12.6546V12.6542C4.6325 12.0687 4.36401 11.4212 4.21485 10.7418H3.14292C2.70419 10.7144 2.37007 10.3377 2.39473 9.89898V9.05891Z" fill="#8A4D00"/>
<path d="M56.7449 46.0085H48.726V38.0378C48.726 31.7242 44.6805 27.3674 38.545 26.897V26.8974C38.0951 27.5254 37.5844 28.1074 37.0196 28.6347H37.4246C43.1185 28.6347 46.9441 32.4134 46.9441 38.0382V46.0089H44.768L45.1606 39.4085L45.1622 39.3552C45.1634 38.6412 44.8813 37.9555 44.3782 37.4491C43.8746 36.9428 43.1909 36.6564 42.4765 36.6536H15.7724C15.0581 36.6564 14.3744 36.9428 13.8707 37.4491C13.3676 37.9555 13.0856 38.6412 13.0867 39.3552L13.4817 46.009H11.3048V38.0383C11.3048 32.4136 15.1304 28.6348 20.8243 28.6348H21.2293C20.6644 28.1074 20.1538 27.5254 19.7039 26.8974C13.5684 27.3688 9.52287 31.725 9.52287 38.0383V46.009H1.50402C1.01199 46.009 0.613037 46.4079 0.613037 46.8999C0.613037 47.392 1.01199 47.7909 1.50402 47.7909H13.5878L13.9843 54.4737C13.9907 55.1829 14.2763 55.8607 14.7791 56.3611C15.2814 56.8614 15.9608 57.1435 16.67 57.1462H41.5788C42.288 57.1434 42.9674 56.861 43.4697 56.3611C43.9725 55.8607 44.2581 55.1829 44.2645 54.4737L44.6618 47.7909H56.7446C57.2366 47.7909 57.6356 47.392 57.6356 46.8999C57.6356 46.4079 57.2366 46.009 56.7446 46.009L56.7449 46.0085ZM42.4841 54.3909L42.4825 54.4438V54.4442C42.486 54.9473 42.0819 55.3586 41.5788 55.3638H16.6699C16.1668 55.3586 15.7626 54.9473 15.7662 54.4442L14.8693 39.3321C14.8772 38.8377 15.2778 38.4395 15.7726 38.4347H42.4766C42.9714 38.4395 43.372 38.8377 43.3799 39.3321L42.4841 54.3909Z" fill="#8A4D00"/>
<path d="M9.96865 13.4881C11.0318 13.4881 12.0517 13.0657 12.8039 12.3139C13.5557 11.5618 13.9781 10.5419 13.9781 9.47866C13.9781 8.41539 13.5557 7.39559 12.8039 6.6434C12.0517 5.89164 11.0319 5.46924 9.96865 5.46924C8.90538 5.46924 7.88558 5.89166 7.13339 6.6434C6.38163 7.39556 5.95923 8.41539 5.95923 9.47866C5.95963 10.5418 6.38204 11.5617 7.1338 12.3135C7.88556 13.0653 8.90538 13.4877 9.96865 13.4881ZM9.96865 7.2512C10.5593 7.2512 11.1261 7.48588 11.5438 7.90353C11.9615 8.32117 12.1961 8.88798 12.1961 9.47868C12.1961 10.0694 11.9614 10.6361 11.5438 11.0538C11.1262 11.4715 10.5593 11.7062 9.96865 11.7062C9.37796 11.7062 8.81119 11.4715 8.3935 11.0538C7.9758 10.6362 7.74117 10.0694 7.74117 9.47868C7.74197 8.88801 7.97665 8.32203 8.3943 7.90434C8.81195 7.48669 9.37797 7.25202 9.96864 7.25121L9.96865 7.2512Z" fill="#8A4D00"/>
<path d="M55.5372 6.47276C55.8753 5.96761 56.026 5.35979 55.9636 4.75525C55.9007 4.15065 55.6287 3.58699 55.1939 3.16217L54.5973 2.56593C54.0985 2.06514 53.4223 1.78115 52.7155 1.77598C52.2048 1.77399 51.7056 1.92911 51.286 2.22107C51.1682 1.62443 50.8449 1.08784 50.3727 0.70477C49.9002 0.321332 49.3087 0.115683 48.7005 0.123248H47.86C47.2519 0.115691 46.6604 0.321332 46.1878 0.704373C45.7157 1.08741 45.3919 1.62359 45.2738 2.22027C44.8546 1.9291 44.3562 1.77398 43.8455 1.77597C43.1387 1.78153 42.4621 2.06513 41.9625 2.56592L41.3674 3.16137C40.8675 3.65936 40.5839 4.33441 40.5779 5.03997C40.5751 5.55188 40.7302 6.05227 41.0222 6.47267C40.4255 6.59081 39.889 6.91378 39.5059 7.38633C39.1228 7.85847 38.9172 8.45031 38.9248 9.05852V9.89899V9.89859C38.9172 10.5072 39.1228 11.099 39.5063 11.5716C39.8897 12.0437 40.4263 12.3671 41.0233 12.4849C40.7035 12.9479 40.548 13.5048 40.5826 14.0659C40.6232 14.721 40.9036 15.3375 41.3701 15.799L41.9612 16.3909C42.4612 16.8917 43.1382 17.1753 43.8458 17.1808C44.3562 17.1832 44.8545 17.0285 45.2737 16.7373C45.3923 17.334 45.7157 17.8701 46.1882 18.2532C46.6603 18.6363 47.2522 18.8415 47.86 18.834H48.7005C49.3086 18.8415 49.9001 18.6359 50.3726 18.2528C50.8448 17.8694 51.1682 17.3332 51.2863 16.7361C51.7055 17.0281 52.2043 17.1832 52.715 17.1808C53.4219 17.176 54.098 16.8924 54.5976 16.3921L55.1931 15.7966C55.6278 15.3714 55.9003 14.8078 55.9631 14.2028C56.026 13.5982 55.8752 12.9905 55.5371 12.4849C56.1338 12.3672 56.6704 12.0438 57.0538 11.5712C57.4373 11.0987 57.6429 10.5073 57.6353 9.89863V9.05856C57.6429 8.44999 57.4373 7.85854 57.0538 7.38596C56.6708 6.91382 56.1342 6.59044 55.5371 6.4727L55.5372 6.47276ZM55.8534 9.89872C55.8777 10.3374 55.5435 10.7137 55.1048 10.7416H54.0329H54.0333C53.8845 11.4209 53.616 12.0685 53.2413 12.654L53.9987 13.4121V13.4125C54.2891 13.7414 54.26 14.2434 53.9331 14.5366L53.338 15.1316C53.1737 15.2995 52.9498 15.3957 52.7151 15.3989C52.5278 15.4017 52.3476 15.3293 52.2139 15.198L51.4554 14.4379L51.455 14.4383C50.8699 14.8146 50.2224 15.0835 49.5426 15.2323V16.3046C49.5148 16.7425 49.1389 17.0762 48.7005 17.052H47.8601C47.4217 17.0766 47.0455 16.7429 47.0172 16.3046V15.2323C46.3378 15.0831 45.6903 14.8142 45.1052 14.4383L44.3471 15.1984V15.198C44.2134 15.3293 44.0329 15.4017 43.8459 15.3989C43.6108 15.3957 43.3869 15.2995 43.2222 15.1316L42.628 14.5366C42.3002 14.2442 42.2704 13.7414 42.5612 13.4125L43.3197 12.6544V12.654C42.9446 12.0685 42.6761 11.421 42.5269 10.7416H41.455C41.0163 10.7141 40.6822 10.3374 40.7068 9.89872V9.05865C40.6822 8.61992 41.0163 8.24364 41.455 8.21619H42.5269C42.6761 7.53682 42.9446 6.8897 43.3197 6.3042L42.5612 5.54567C42.2704 5.21632 42.3002 4.71355 42.628 4.4212L43.2222 3.82655C43.3865 3.6583 43.6104 3.56164 43.8455 3.55806C44.0333 3.55568 44.2138 3.62847 44.3471 3.76013L45.1052 4.51826C45.6907 4.14317 46.3382 3.87508 47.0172 3.72632V2.65358C47.0447 2.21485 47.4214 1.88033 47.8601 1.90539H48.7005C49.1393 1.88073 49.5156 2.21485 49.5426 2.65358V3.72632C50.222 3.87468 50.8699 4.14277 51.455 4.51826L52.2135 3.76013H52.2139C52.3472 3.62847 52.5278 3.55568 52.7155 3.55806C52.9502 3.56164 53.1741 3.6583 53.338 3.82655L53.9331 4.4212C54.26 4.71435 54.289 5.21632 53.9987 5.54567L53.2413 6.3042C53.6164 6.8897 53.8845 7.53721 54.0333 8.21619H55.1048C55.5435 8.24364 55.8781 8.61992 55.8534 9.05865L55.8534 9.89872Z" fill="#8A4D00"/>
<path d="M48.2799 5.46924C47.2168 5.46924 46.1969 5.89166 45.4447 6.6434C44.6929 7.39556 44.2705 8.41539 44.2705 9.47866C44.2705 10.5419 44.6929 11.5617 45.4447 12.3139C46.1968 13.0657 47.2167 13.4881 48.2799 13.4881C49.3432 13.4881 50.363 13.0657 51.1152 12.3139C51.867 11.5618 52.2894 10.5419 52.2894 9.47866C52.2894 8.41539 51.8669 7.39559 51.1152 6.6434C50.363 5.89164 49.3432 5.46924 48.2799 5.46924ZM48.2799 11.7061C47.6893 11.7061 47.1225 11.4714 46.7048 11.0538C46.2871 10.6362 46.0525 10.0693 46.0525 9.47864C46.0525 8.88794 46.2871 8.32118 46.7048 7.90348C47.1224 7.48579 47.6892 7.25116 48.2799 7.25116C48.8706 7.25116 49.4374 7.48584 49.8551 7.90348C50.2728 8.32113 50.5074 8.88794 50.5074 9.47864C50.5066 10.0693 50.2719 10.6353 49.8543 11.053C49.4366 11.4706 48.8706 11.7053 48.2799 11.7061L48.2799 11.7061Z" fill="#8A4D00"/>
<path d="M28.6782 44.1154C27.8513 44.1154 27.0582 44.444 26.4731 45.0287C25.8884 45.6138 25.5598 46.4069 25.5598 47.2338C25.5598 48.0608 25.8884 48.8539 26.4731 49.439C27.0582 50.0237 27.8513 50.3523 28.6782 50.3523C29.5052 50.3523 30.2983 50.0237 30.8834 49.439C31.4681 48.8539 31.7967 48.0608 31.7967 47.2338C31.7955 46.4069 31.4669 45.6146 30.8822 45.0298C30.2975 44.4451 29.5052 44.1165 28.6782 44.1154L28.6782 44.1154ZM28.6782 48.5703C28.1377 48.5703 27.6504 48.2446 27.4436 47.7454C27.2368 47.2458 27.3509 46.671 27.7332 46.2888C28.1154 45.9065 28.6902 45.7923 29.1898 45.9992C29.689 46.206 30.0147 46.6933 30.0147 47.2338C30.014 47.9717 29.4161 48.5695 28.6783 48.5703L28.6782 48.5703Z" fill="#8A4D00"/>
</svg>
