<svg width="61" height="58" viewBox="0 0 61 58" fill="none" xmlns="http://www.w3.org/2000/svg">
<path d="M57.2408 0.123047H3.73387C1.77621 0.123047 0.182617 1.71653 0.182617 3.6743V39.2907C0.182617 41.2484 1.7761 42.842 3.73387 42.842H33.0807C33.7279 44.2499 34.9058 44.3986 35.2991 44.6274L30.7679 52.6738C30.6225 52.9318 30.6522 53.2536 30.8436 53.4801C31.0332 53.7048 31.3468 53.7892 31.6253 53.6912L35.8721 52.1774L36.7601 56.5823C36.8193 56.8727 37.0522 57.0965 37.3453 57.1439C37.3822 57.1493 37.4192 57.1521 37.4561 57.1521C37.7095 57.1521 37.9479 57.0162 38.0746 56.7906L42.5853 48.787C43.0488 48.8914 43.3036 48.8759 43.65 48.8057L48.1544 56.7906C48.282 57.0163 48.5195 57.1521 48.7729 57.1521C48.8099 57.1521 48.8468 57.1494 48.8837 57.1439C49.1768 57.0969 49.4097 56.8731 49.469 56.5823L50.3578 52.1774L54.6046 53.6912C54.884 53.791 55.1967 53.7058 55.3863 53.4801C55.5778 53.2536 55.6074 52.9318 55.462 52.6738L50.949 44.668C51.6851 44.2327 52.7189 43.9556 53.1938 42.8421L57.2401 42.8426C59.1977 42.8426 60.7913 41.2491 60.7913 39.2913L60.7918 3.67489C60.7918 1.71677 59.1983 0.123171 57.2401 0.123171L57.2408 0.123047ZM11.0268 36.687C10.7087 34.2511 8.77371 32.3162 6.33786 31.998V10.9675C8.77371 10.6493 10.7086 8.71437 11.0268 6.27853H49.9478C50.266 8.71484 52.2009 10.6493 54.6368 10.9675V31.9968C54.2138 32.052 53.8003 32.1573 53.4029 32.3082C52.9754 30.3441 50.6179 30.551 50.2213 29.1909C49.709 27.4843 47.7663 26.6648 46.5562 27.1488C45.7148 27.2856 45.2544 26.776 45.109 26.6725C43.9317 25.636 42.205 25.6579 41.0537 26.7354C40.4748 27.2783 39.9383 27.1885 39.4169 27.1037C37.7905 26.8288 36.4318 27.8088 36.0088 29.1968C35.858 29.711 35.4623 30.108 34.9409 30.2593C33.6013 30.6673 32.5976 31.9544 32.8519 33.708C33.1254 35.5559 32.1609 34.9027 31.7493 36.6867L11.0268 36.687ZM37.775 54.4292L37.1018 51.0922C37.0612 50.8907 36.9345 50.7157 36.7549 50.6141C36.6469 50.5539 36.5265 50.5224 36.4053 50.5224C36.3246 50.5224 36.2444 50.5361 36.1669 50.5639L32.9375 51.7153L36.1751 45.9658C36.7462 47.1673 37.6793 47.7101 38.9628 47.6759C39.921 47.6545 40.0167 47.2402 41.2856 48.1992L37.775 54.4292ZM50.0633 50.5644C49.8691 50.4952 49.6554 50.5143 49.4753 50.6146C49.2957 50.7162 49.169 50.8913 49.1285 51.0927L48.4543 54.4315L44.9391 48.1992C46.2947 47.1791 46.2117 47.6823 47.3243 47.6823C49.1781 47.6823 49.8687 46.1864 50.0528 45.9703L53.2918 51.7153L50.0633 50.5644ZM49.0997 44.5619C48.7679 45.1718 48.5619 46.5219 46.8612 46.2056C44.2202 45.6942 43.8237 48.6058 42.0228 46.9549C39.8235 44.8983 38.6967 47.8037 37.2276 44.7876C36.224 42.4785 33.8086 43.5724 34.2699 41.1471C34.4709 40.0408 34.1436 39.1223 33.5114 38.4532C32.9854 37.8967 32.8856 36.9705 33.5251 36.2726C34.7334 34.9763 34.217 33.6394 34.217 33.1548C34.217 31.1068 36.6428 32.0841 37.3689 29.6028C37.5832 28.9004 38.2623 28.3552 39.1835 28.5052C39.793 28.6068 40.9315 28.7955 42.0237 27.7736C42.6564 27.1815 43.5739 27.1815 44.2061 27.7736C45.0607 28.5626 46.363 28.7682 47.0535 28.4874C47.8443 28.3516 48.6264 28.8242 48.859 29.5946C49.6043 32.1581 52.4959 31.1639 51.9704 33.5296C51.7219 34.7184 52.1586 35.8023 52.7657 36.3301C53.851 37.6005 52.3131 38.858 52.7092 38.462C51.7242 39.4998 51.8796 40.5796 51.9722 41.2256C52.3054 43.496 50.1594 42.6203 49.0997 44.5621L49.0997 44.5619ZM59.3705 39.2909C59.3705 40.4655 58.4143 41.4219 57.2396 41.4219H53.4167C53.408 41.2947 53.3994 41.1694 53.3784 41.0221C53.1888 39.7163 53.6505 39.6406 53.7353 39.4437C53.7399 39.4392 53.7444 39.4346 53.749 39.43C54.9701 38.1388 54.7057 36.0839 53.6925 35.247C53.3944 34.897 53.2444 34.4439 53.3447 33.9102C54.9154 33.0195 56.0558 33.7411 56.0558 32.6617V10.3033C56.0558 9.9113 55.7376 9.59315 55.3456 9.59315C53.1259 9.59315 51.3209 7.78765 51.3209 5.56838C51.3209 5.17638 51.0027 4.85823 50.6107 4.85823H10.3618C9.96984 4.85823 9.65169 5.17639 9.65169 5.56838C9.65169 7.78812 7.84619 9.59315 5.62692 9.59315C5.23492 9.59315 4.91678 9.91131 4.91678 10.3033V32.6617C4.91678 33.0537 5.23493 33.3719 5.62692 33.3719C7.84666 33.3719 9.65169 35.1774 9.65169 37.3966C9.65169 37.7886 9.96985 38.1068 10.3618 38.1068H31.7658C32.14 39.5859 33.1273 39.5193 32.8725 40.8886C32.8419 41.055 32.8178 41.2309 32.8064 41.4214L3.73261 41.4219C2.55804 41.4219 1.60167 40.4656 1.60167 39.291V3.67455C1.60167 2.49998 2.55796 1.54361 3.73261 1.54361H57.2395C58.4141 1.54361 59.3704 2.4999 59.3704 3.67455L59.3705 39.2909Z" fill="#8A4D00"/>
<path d="M12.7375 13.7406H48.2349C48.6269 13.7406 48.945 13.4224 48.945 13.0305C48.945 12.6385 48.6269 12.3203 48.2349 12.3203H12.7375C12.3455 12.3203 12.0273 12.6385 12.0273 13.0305C12.0269 13.4225 12.345 13.7406 12.7375 13.7406Z" fill="#8A4D00"/>
<path d="M48.9455 18.0325C48.9455 17.6405 48.6274 17.3224 48.2354 17.3224H12.738C12.346 17.3224 12.0278 17.6405 12.0278 18.0325C12.0278 18.4245 12.346 18.7427 12.738 18.7427H48.2354C48.6278 18.7427 48.9455 18.4245 48.9455 18.0325Z" fill="#8A4D00"/>
<path d="M41.8042 23.0323C41.8042 22.6403 41.486 22.3221 41.094 22.3221H19.8803C19.4883 22.3221 19.1702 22.6403 19.1702 23.0323C19.1702 23.4243 19.4883 23.7424 19.8803 23.7424H41.094C41.486 23.7429 41.8042 23.4247 41.8042 23.0323Z" fill="#8A4D00"/>
<path d="M43.1217 30.519C39.3389 30.519 36.2622 33.5912 36.2622 37.3685C36.2622 41.1443 39.3389 44.2169 43.1217 44.2169C46.8975 44.2169 49.9701 41.1448 49.9701 37.3685C49.9701 33.5912 46.8975 30.519 43.1217 30.519ZM43.1217 42.7957C40.1225 42.7957 37.683 40.3608 37.683 37.3679C37.683 34.3742 40.1225 31.9392 43.1217 31.9392C46.1145 31.9392 48.5495 34.3742 48.5495 37.3679C48.5495 40.3603 46.1146 42.7957 43.1217 42.7957Z" fill="#8A4D00"/>
</svg>
