<svg width="20" height="19" viewBox="0 0 20 19" fill="none" xmlns="http://www.w3.org/2000/svg">
<path d="M10.4741 0C15.7206 0 19.9741 4.25357 19.9741 9.5C19.9741 14.7464 15.7206 19 10.4741 19C5.22769 19 0.974121 14.7467 0.974121 9.5C0.974121 4.25357 5.22769 0 10.4741 0V0ZM14.7785 12.9895C13.722 14.2919 12.1519 15.0443 10.4741 15.0443C7.4124 15.0443 4.92978 12.5617 4.92978 9.5C4.92978 6.43828 7.4124 3.95566 10.4741 3.95566C12.1521 3.95566 13.7218 4.7081 14.7785 6.01055L13.3087 7.2056C12.6146 6.3499 11.5755 5.85598 10.4741 5.85598C8.46137 5.85598 6.8301 7.48725 6.8301 9.5C6.8301 11.5128 8.46137 13.144 10.4741 13.144C11.5755 13.144 12.6146 12.6501 13.3087 11.7944L14.7785 12.9895ZM10.4741 1.90032C6.27665 1.90032 2.87444 5.30253 2.87444 9.5C2.87444 13.6975 6.27665 17.0997 10.4741 17.0997C14.6716 17.0997 18.0738 13.6975 18.0738 9.5C18.0738 5.30253 14.6716 1.90032 10.4741 1.90032Z" fill="#222222"/>
</svg>
