<svg width="58" height="58" viewBox="0 0 58 58" fill="none" xmlns="http://www.w3.org/2000/svg">
<path d="M29.1243 29.8958C31.7236 29.8958 34.2164 28.8632 36.0545 27.0252C37.8926 25.1871 38.9251 22.6944 38.9251 20.095C38.9251 17.4956 37.8925 15.0029 36.0545 13.1648C34.2164 11.3267 31.7237 10.2942 29.1243 10.2942C26.5249 10.2942 24.0322 11.3268 22.1941 13.1648C20.356 15.0029 19.3235 17.4956 19.3235 20.095C19.3231 22.6943 20.3557 25.1876 22.1938 27.0255C24.0318 28.8635 26.525 29.8961 29.1243 29.8958ZM29.1243 12.0762C31.2512 12.0762 33.2908 12.921 34.7944 14.4249C36.2984 15.9285 37.1431 17.9681 37.1431 20.095C37.1431 22.2219 36.2983 24.2615 34.7944 25.7651C33.2908 27.2691 31.2512 28.1138 29.1243 28.1138C26.9974 28.1138 24.9578 27.269 23.4542 25.7651C21.9502 24.2615 21.1055 22.2219 21.1055 20.095C21.1078 17.969 21.9535 15.9308 23.4566 14.4273C24.9602 12.9242 26.9983 12.0786 29.1243 12.0762Z" fill="#8A4D00"/>
<path d="M2.71135 12.41C2.39155 12.873 2.23602 13.4299 2.27063 13.991C2.3112 14.6461 2.59162 15.2626 3.0582 15.7241L3.64927 16.316C4.14926 16.8168 4.82629 17.1004 5.53388 17.1059C6.0442 17.1083 6.54259 16.9536 6.96179 16.6624C7.08033 17.2591 7.4037 17.7953 7.87625 18.1783C8.34839 18.5614 8.94023 18.7666 9.54804 18.7591H10.3885C10.9967 18.7666 11.5881 18.561 12.0607 18.1779C12.5328 17.7945 12.8562 17.2583 12.9744 16.6612C13.3936 16.9532 13.8924 17.1083 14.4031 17.1059C15.1099 17.1012 15.7861 16.8176 16.2857 16.3172L16.8811 15.7217C17.3159 15.2965 17.5883 14.7329 17.6512 14.1279C17.714 13.5233 17.5633 12.9156 17.2252 12.41C17.8218 12.2923 18.3584 11.9689 18.7419 11.4963C19.1253 11.0238 19.331 10.4324 19.3234 9.82374V8.98367C19.331 8.3751 19.1253 7.78365 18.7419 7.31107C18.3588 6.83893 17.8223 6.51555 17.2252 6.39781C17.5633 5.89266 17.714 5.28484 17.6516 4.6803C17.5887 4.0757 17.3167 3.51204 16.8819 3.08722L16.2853 2.49098C15.7865 1.99019 15.1103 1.7062 14.4035 1.70102C13.8928 1.69904 13.3936 1.85416 12.974 2.14612C12.8562 1.54948 12.5328 1.01289 12.0607 0.629819C11.5882 0.246381 10.9967 0.0407315 10.3885 0.0482972H9.54804C8.93986 0.0407398 8.34842 0.246381 7.87584 0.629422C7.4037 1.01246 7.07992 1.54864 6.96178 2.14531C6.54294 1.85415 6.04415 1.69903 5.53346 1.70101C4.82664 1.70658 4.15004 1.99018 3.65048 2.49096L3.05543 3.08642C2.55544 3.58441 2.27184 4.25946 2.26587 4.96502C2.26309 5.47693 2.41822 5.97731 2.71018 6.39772C2.11353 6.51585 1.57695 6.83883 1.19387 7.31138C0.810833 7.78351 0.605194 8.37536 0.61275 8.98357V9.82404V9.82364C0.605192 10.4322 0.810834 11.0241 1.19427 11.4967C1.57771 11.9688 2.1143 12.2922 2.71128 12.4099L2.71135 12.41ZM2.39473 8.98372C2.37007 8.54498 2.70419 8.1687 3.14292 8.14126H4.21485C4.364 7.46189 4.6325 6.81477 5.00759 6.22926L4.24906 5.47074C3.95829 5.14139 3.98813 4.63862 4.31588 4.34627L4.91013 3.75162C5.07441 3.58337 5.29835 3.48671 5.53342 3.48313C5.72117 3.48075 5.90175 3.55354 6.035 3.6852L6.79313 4.44333C7.37864 4.06824 8.02615 3.80015 8.70513 3.65139V2.57865C8.73258 2.13992 9.10926 1.8054 9.54798 1.83046H10.3884C10.8272 1.80579 11.2035 2.13992 11.2305 2.57865V3.65139C11.9099 3.79975 12.5578 4.06784 13.1429 4.44333L13.9014 3.6852H13.9018C14.0351 3.55354 14.2157 3.48075 14.4034 3.48313C14.6381 3.48671 14.862 3.58337 15.0259 3.75162L15.621 4.34627C15.9479 4.63941 15.977 5.14139 15.6866 5.47074L14.9293 6.22926C15.3043 6.81477 15.5724 7.46228 15.7212 8.14126H16.7927C17.2314 8.16871 17.566 8.54498 17.5413 8.98372V9.82418V9.82378C17.5656 10.2625 17.2314 10.6388 16.7927 10.6666H15.7212C15.5724 11.3456 15.3039 11.9935 14.9293 12.579L15.6866 13.3372V13.3376C15.977 13.6665 15.9479 14.1685 15.621 14.4616L15.0259 15.0567C14.8616 15.2245 14.6377 15.3208 14.403 15.324C14.2157 15.3268 14.0355 15.2544 13.9018 15.1231L13.1429 14.3634C12.5578 14.7397 11.9103 15.0086 11.2305 15.1573V16.2297C11.2027 16.6676 10.8268 17.0013 10.3884 16.977H9.54798C9.10965 17.0017 8.73337 16.668 8.70513 16.2297V15.1573C8.02575 15.0082 7.37823 14.7393 6.79313 14.3634L6.035 15.1235V15.1231C5.90136 15.2544 5.72078 15.3268 5.53382 15.324C5.29875 15.3208 5.07481 15.2245 4.91013 15.0567L4.31588 14.4616C3.98812 14.1693 3.9583 13.6665 4.24906 13.3376L5.00759 12.5794V12.579C4.6325 11.9935 4.36401 11.346 4.21485 10.6666H3.14292C2.70419 10.6392 2.37007 10.2625 2.39473 9.82378V8.98372Z" fill="#8A4D00"/>
<path d="M56.7449 45.9333H48.726V37.9626C48.726 31.649 44.6805 27.2922 38.545 26.8218V26.8222C38.0951 27.4502 37.5844 28.0322 37.0196 28.5595H37.4246C43.1185 28.5595 46.9441 32.3382 46.9441 37.963V45.9337H44.768L45.1606 39.3333L45.1622 39.28C45.1634 38.566 44.8813 37.8803 44.3782 37.3739C43.8746 36.8676 43.1909 36.5812 42.4765 36.5784H15.7724C15.0581 36.5812 14.3744 36.8676 13.8707 37.3739C13.3676 37.8803 13.0856 38.566 13.0867 39.28L13.4817 45.9338H11.3048V37.9631C11.3048 32.3384 15.1304 28.5596 20.8243 28.5596H21.2293C20.6644 28.0322 20.1538 27.4502 19.7039 26.8222C13.5684 27.2936 9.52287 31.6498 9.52287 37.9631V45.9338H1.50402C1.01199 45.9338 0.613037 46.3327 0.613037 46.8247C0.613037 47.3168 1.01199 47.7157 1.50402 47.7157H13.5878L13.9843 54.3985C13.9907 55.1077 14.2763 55.7855 14.7791 56.2859C15.2814 56.7862 15.9608 57.0683 16.67 57.071H41.5788C42.288 57.0683 42.9674 56.7858 43.4697 56.2859C43.9725 55.7855 44.2581 55.1077 44.2645 54.3985L44.6618 47.7157H56.7446C57.2366 47.7157 57.6356 47.3168 57.6356 46.8247C57.6356 46.3327 57.2366 45.9338 56.7446 45.9338L56.7449 45.9333ZM42.4841 54.3157L42.4825 54.3686V54.369C42.486 54.8721 42.0819 55.2834 41.5788 55.2886H16.6699C16.1668 55.2834 15.7626 54.8721 15.7662 54.369L14.8693 39.2569C14.8772 38.7625 15.2778 38.3643 15.7726 38.3595H42.4766C42.9714 38.3643 43.372 38.7625 43.3799 39.2569L42.4841 54.3157Z" fill="#8A4D00"/>
<path d="M9.96865 13.4129C11.0318 13.4129 12.0517 12.9905 12.8039 12.2387C13.5557 11.4866 13.9781 10.4667 13.9781 9.40347C13.9781 8.34019 13.5557 7.3204 12.8039 6.56821C12.0517 5.81644 11.0319 5.39404 9.96865 5.39404C8.90538 5.39404 7.88558 5.81646 7.13339 6.56821C6.38163 7.32037 5.95923 8.34019 5.95923 9.40347C5.95963 10.4666 6.38204 11.4865 7.1338 12.2383C7.88556 12.9901 8.90538 13.4125 9.96865 13.4129ZM9.96865 7.17601C10.5593 7.17601 11.1261 7.41069 11.5438 7.82833C11.9615 8.24597 12.1961 8.81279 12.1961 9.40349C12.1961 9.99418 11.9614 10.5609 11.5438 10.9786C11.1262 11.3963 10.5593 11.631 9.96865 11.631C9.37796 11.631 8.81119 11.3963 8.3935 10.9786C7.9758 10.561 7.74117 9.99418 7.74117 9.40349C7.74197 8.81281 7.97665 8.24684 8.3943 7.82914C8.81195 7.41149 9.37797 7.17682 9.96864 7.17602L9.96865 7.17601Z" fill="#8A4D00"/>
<path d="M55.5372 6.39756C55.8753 5.89241 56.026 5.2846 55.9636 4.68005C55.9007 4.07546 55.6287 3.5118 55.1939 3.08698L54.5973 2.49073C54.0985 1.98995 53.4223 1.70595 52.7155 1.70078C52.2048 1.69879 51.7056 1.85392 51.286 2.14587C51.1682 1.54923 50.8449 1.01265 50.3727 0.629575C49.9002 0.246136 49.3087 0.0404874 48.7005 0.0480531H47.86C47.2519 0.0404956 46.6604 0.246136 46.1878 0.629178C45.7157 1.01222 45.3919 1.5484 45.2738 2.14507C44.8546 1.85391 44.3562 1.69878 43.8455 1.70077C43.1387 1.70634 42.4621 1.98994 41.9625 2.49072L41.3674 3.08617C40.8675 3.58417 40.5839 4.25921 40.5779 4.96477C40.5751 5.47668 40.7302 5.97707 41.0222 6.39747C40.4255 6.51561 39.889 6.83858 39.5059 7.31113C39.1228 7.78327 38.9172 8.37512 38.9248 8.98333V9.8238V9.8234C38.9172 10.432 39.1228 11.0238 39.5063 11.4964C39.8897 11.9685 40.4263 12.2919 41.0233 12.4097C40.7035 12.8727 40.548 13.4296 40.5826 13.9907C40.6232 14.6458 40.9036 15.2623 41.3701 15.7238L41.9612 16.3157C42.4612 16.8165 43.1382 17.1001 43.8458 17.1056C44.3562 17.108 44.8545 16.9533 45.2737 16.6621C45.3923 17.2588 45.7157 17.795 46.1882 18.178C46.6603 18.5611 47.2522 18.7663 47.86 18.7588H48.7005C49.3086 18.7663 49.9001 18.5607 50.3726 18.1776C50.8448 17.7942 51.1682 17.258 51.2863 16.6609C51.7055 16.9529 52.2043 17.108 52.715 17.1056C53.4219 17.1008 54.098 16.8172 54.5976 16.3169L55.1931 15.7214C55.6278 15.2962 55.9003 14.7326 55.9631 14.1276C56.026 13.523 55.8752 12.9153 55.5371 12.4097C56.1338 12.292 56.6704 11.9686 57.0538 11.496C57.4373 11.0235 57.6429 10.4321 57.6353 9.82344V8.98337C57.6429 8.37479 57.4373 7.78334 57.0538 7.31077C56.6708 6.83863 56.1342 6.51524 55.5371 6.3975L55.5372 6.39756ZM55.8534 9.82352C55.8777 10.2623 55.5435 10.6385 55.1048 10.6664H54.0329H54.0333C53.8845 11.3457 53.616 11.9933 53.2413 12.5788L53.9987 13.3369V13.3373C54.2891 13.6663 54.26 14.1682 53.9331 14.4614L53.338 15.0564C53.1737 15.2243 52.9498 15.3205 52.7151 15.3237C52.5278 15.3265 52.3476 15.2541 52.2139 15.1228L51.4554 14.3627L51.455 14.3631C50.8699 14.7394 50.2224 15.0083 49.5426 15.1571V16.2294C49.5148 16.6673 49.1389 17.001 48.7005 16.9768H47.8601C47.4217 17.0014 47.0455 16.6677 47.0172 16.2294V15.1571C46.3378 15.0079 45.6903 14.739 45.1052 14.3631L44.3471 15.1232V15.1228C44.2134 15.2541 44.0329 15.3265 43.8459 15.3237C43.6108 15.3205 43.3869 15.2243 43.2222 15.0564L42.628 14.4614C42.3002 14.169 42.2704 13.6662 42.5612 13.3373L43.3197 12.5792V12.5788C42.9446 11.9933 42.6761 11.3458 42.5269 10.6664H41.455C41.0163 10.6389 40.6822 10.2622 40.7068 9.82352V8.98345C40.6822 8.54472 41.0163 8.16844 41.455 8.141H42.5269C42.6761 7.46162 42.9446 6.8145 43.3197 6.229L42.5612 5.47047C42.2704 5.14113 42.3002 4.63836 42.628 4.346L43.2222 3.75135C43.3865 3.58311 43.6104 3.48644 43.8455 3.48287C44.0333 3.48048 44.2138 3.55327 44.3471 3.68493L45.1052 4.44306C45.6907 4.06797 46.3382 3.79989 47.0172 3.65113V2.57838C47.0447 2.13965 47.4214 1.80513 47.8601 1.83019H48.7005C49.1393 1.80553 49.5156 2.13965 49.5426 2.57838V3.65113C50.222 3.79949 50.8699 4.06758 51.455 4.44306L52.2135 3.68493H52.2139C52.3472 3.55327 52.5278 3.48049 52.7155 3.48287C52.9502 3.48645 53.1741 3.5831 53.338 3.75135L53.9331 4.346C54.26 4.63915 54.289 5.14113 53.9987 5.47047L53.2413 6.229C53.6164 6.8145 53.8845 7.46202 54.0333 8.141H55.1048C55.5435 8.16844 55.8781 8.54472 55.8534 8.98345L55.8534 9.82352Z" fill="#8A4D00"/>
<path d="M48.2799 5.39404C47.2168 5.39404 46.1969 5.81646 45.4447 6.56821C44.6929 7.32037 44.2705 8.34019 44.2705 9.40347C44.2705 10.4667 44.6929 11.4865 45.4447 12.2387C46.1968 12.9905 47.2167 13.4129 48.2799 13.4129C49.3432 13.4129 50.363 12.9905 51.1152 12.2387C51.867 11.4866 52.2894 10.4667 52.2894 9.40347C52.2894 8.34019 51.8669 7.3204 51.1152 6.56821C50.363 5.81644 49.3432 5.39404 48.2799 5.39404ZM48.2799 11.6309C47.6893 11.6309 47.1225 11.3962 46.7048 10.9786C46.2871 10.561 46.0525 9.99414 46.0525 9.40345C46.0525 8.81275 46.2871 8.24598 46.7048 7.82829C47.1224 7.4106 47.6892 7.17597 48.2799 7.17597C48.8706 7.17597 49.4374 7.41065 49.8551 7.82829C50.2728 8.24593 50.5074 8.81275 50.5074 9.40345C50.5066 9.99412 50.2719 10.5601 49.8543 10.9778C49.4366 11.3954 48.8706 11.6301 48.2799 11.6309L48.2799 11.6309Z" fill="#8A4D00"/>
<path d="M28.6782 44.0404C27.8513 44.0404 27.0582 44.3689 26.4731 44.9536C25.8884 45.5387 25.5598 46.3318 25.5598 47.1588C25.5598 47.9857 25.8884 48.7788 26.4731 49.3639C27.0582 49.9486 27.8513 50.2772 28.6782 50.2772C29.5052 50.2772 30.2983 49.9486 30.8834 49.3639C31.4681 48.7788 31.7967 47.9857 31.7967 47.1588C31.7955 46.3318 31.4669 45.5395 30.8822 44.9547C30.2975 44.37 29.5052 44.0415 28.6782 44.0403L28.6782 44.0404ZM28.6782 48.4953C28.1377 48.4953 27.6504 48.1695 27.4436 47.6703C27.2368 47.1707 27.3509 46.5959 27.7332 46.2137C28.1154 45.8314 28.6902 45.7173 29.1898 45.9241C29.689 46.1309 30.0147 46.6182 30.0147 47.1588C30.014 47.8966 29.4161 48.4944 28.6783 48.4952L28.6782 48.4953Z" fill="#8A4D00"/>
</svg>
