<svg width="47" height="57" viewBox="0 0 47 57" fill="none" xmlns="http://www.w3.org/2000/svg">
<path d="M46.0029 9.95893C45.9586 9.78678 45.8653 9.63149 45.7339 9.51189L35.752 0.727953C35.5916 0.587179 35.3853 0.509137 35.1716 0.509137H3.23019C2.48278 0.48404 1.7569 0.76089 1.21621 1.27734C0.675064 1.79378 0.364875 2.50628 0.355469 3.25407V54.2009C0.355469 55.5699 1.67226 56.7263 3.23027 56.7263H43.1575C43.8873 56.7557 44.5994 56.4953 45.1382 56.0016C45.677 55.5079 45.9981 54.8208 46.0323 54.0911V10.1714C46.0319 10.0997 46.0221 10.0283 46.0032 9.95887L46.0029 9.95893ZM42.7274 9.29307H36.721C36.0543 9.29307 35.4912 8.89074 35.4912 8.41468V3.26278L42.7274 9.29307ZM43.1572 54.9695H3.2299C2.61071 54.9695 2.11188 54.5492 2.11188 54.2009V3.25412C2.12404 2.97296 2.24992 2.70865 2.46089 2.52239C2.67187 2.33572 2.9495 2.24319 3.22988 2.26592H33.7337V8.41468C33.7337 9.86799 35.0737 11.0499 36.7203 11.0499H44.2745V54.0911C44.1941 54.6343 43.7031 55.0201 43.1564 54.9695H43.1572Z" fill="#8A4D00"/>
<path d="M6.50437 7.97529H25.829C26.3141 7.97529 26.7074 7.58197 26.7074 7.0969C26.7074 6.61183 26.3141 6.21851 25.829 6.21851H6.50437C6.0193 6.21851 5.62598 6.61183 5.62598 7.0969C5.62598 7.58197 6.0193 7.97529 6.50437 7.97529Z" fill="#8A4D00"/>
<path d="M10.3411 32.7677L7.79804 34.8399L7.19297 34.0752V34.0748C6.89181 33.6944 6.33968 33.6301 5.95931 33.9309C5.57893 34.2316 5.51423 34.7838 5.815 35.1645L6.97257 36.6284C7.28275 37.0017 7.83293 37.0621 8.21648 36.7645L11.4509 34.1293C11.6317 33.9822 11.7469 33.7693 11.7705 33.5376C11.7944 33.3054 11.725 33.0737 11.5775 32.8929C11.4301 32.7125 11.2172 32.5976 10.9854 32.5741C10.7533 32.5505 10.5215 32.6203 10.3411 32.7678L10.3411 32.7677Z" fill="#8A4D00"/>
<path d="M10.3411 39.7948L7.79804 41.867L7.19297 41.1023V41.1019C6.89181 40.7215 6.33968 40.6572 5.95931 40.958C5.57893 41.2587 5.51423 41.8109 5.815 42.1916L6.97257 43.6555C7.28119 44.0319 7.8341 44.0923 8.21648 43.7916L11.4509 41.1564C11.632 41.0093 11.7469 40.7964 11.7705 40.5647C11.7944 40.3325 11.725 40.1008 11.5775 39.92C11.4301 39.7396 11.2172 39.6247 10.9854 39.6012C10.7533 39.5776 10.5215 39.6474 10.3411 39.7949L10.3411 39.7948Z" fill="#8A4D00"/>
<path d="M39.8831 46.625H15.2881C14.803 46.625 14.4097 47.0183 14.4097 47.5034C14.4097 47.9885 14.803 48.3818 15.2881 48.3818H39.8831C40.3682 48.3818 40.7615 47.9885 40.7615 47.5034C40.7615 47.0183 40.3682 46.625 39.8831 46.625Z" fill="#8A4D00"/>
<path d="M10.3411 46.8219L7.79804 48.8941L7.19297 48.1294V48.129C6.89181 47.7486 6.33968 47.6843 5.95931 47.9851C5.57893 48.2858 5.51423 48.838 5.815 49.2187L6.97257 50.6826C7.27884 51.0638 7.83568 51.1245 8.21648 50.8187L11.4509 48.1835C11.6317 48.0364 11.7469 47.8235 11.7705 47.5918C11.7944 47.3596 11.725 47.1279 11.5775 46.9471C11.4301 46.7667 11.2172 46.6518 10.9854 46.6283C10.7533 46.6047 10.5215 46.6745 10.3411 46.822L10.3411 46.8219Z" fill="#8A4D00"/>
<path d="M15.2881 41.3547H27.9158L26.1591 39.5979H15.2881C14.803 39.5979 14.4097 39.9912 14.4097 40.4763C14.4097 40.9614 14.803 41.3547 15.2881 41.3547Z" fill="#8A4D00"/>
<path d="M39.8832 39.5979H38.0037C38.1609 40.172 38.1672 40.7775 38.0217 41.3547H39.8832C40.3683 41.3547 40.7616 40.9614 40.7616 40.4763C40.7616 39.9912 40.3683 39.5979 39.8832 39.5979H39.8832Z" fill="#8A4D00"/>
<path d="M39.8831 32.5708H31.647L33.4038 34.3276H39.8831C40.3682 34.3276 40.7615 33.9343 40.7615 33.4492C40.7615 32.9641 40.3682 32.5708 39.8831 32.5708Z" fill="#8A4D00"/>
<path d="M15.2881 34.3279H20.889C20.3749 33.851 19.9996 33.244 19.8028 32.5711H15.3963C15.1477 32.5519 14.9022 32.635 14.7163 32.8005C14.5301 32.9664 14.4195 33.2005 14.4097 33.4495C14.4097 33.9345 14.803 34.3279 15.2881 34.3279H15.2881Z" fill="#8A4D00"/>
<path d="M39.8835 25.5438H24.5994C24.4112 26.0116 24.192 26.4665 23.9434 26.9052C24.1194 26.8774 24.2975 26.8625 24.4755 26.8613C25.0715 26.8605 25.6582 27.0119 26.1798 27.3005H39.8837C40.3688 27.3005 40.7621 26.9072 40.7621 26.4221C40.7621 25.937 40.3688 25.5437 39.8837 25.5437L39.8835 25.5438Z" fill="#8A4D00"/>
<path d="M39.8834 18.5166H25.1746C25.3051 19.095 25.3922 19.682 25.4345 20.2734H39.8834C40.3684 20.2734 40.7618 19.8801 40.7618 19.395C40.7618 18.9099 40.3684 18.5166 39.8834 18.5166H39.8834Z" fill="#8A4D00"/>
<path d="M21.5786 12.3669H29.343C29.8281 12.3669 30.2214 11.9736 30.2214 11.4885C30.2214 11.0034 29.8281 10.6101 29.343 10.6101H19.0432C19.9612 11.0826 20.8134 11.6732 21.5784 12.3669H21.5786Z" fill="#8A4D00"/>
<path d="M5.98038 12.1901C6.67525 11.5721 7.44303 11.0419 8.26691 10.6106H6.5046C6.12619 10.6094 5.79012 10.8514 5.67091 11.2106C5.5517 11.5698 5.6764 11.9647 5.98031 12.1901L5.98038 12.1901Z" fill="#8A4D00"/>
<path d="M21.968 30.3906L21.9566 30.4019V30.4023C21.6237 30.7345 21.4371 31.1854 21.4371 31.656C21.4371 32.1261 21.6237 32.5771 21.9566 32.9096L32.0777 43.0307C32.4103 43.3632 32.8612 43.5499 33.3314 43.5499C33.8015 43.5499 34.2525 43.3632 34.585 43.0307L35.8504 41.7656L35.85 41.7652C36.183 41.4331 36.3696 40.9821 36.3696 40.5116C36.3696 40.0414 36.183 39.5904 35.85 39.2579L25.7289 29.1368C25.3964 28.8043 24.9454 28.6176 24.4753 28.6176C24.0051 28.6176 23.5541 28.8043 23.2216 29.1368L23.2099 29.1486L21.328 27.2667V27.2663C23.5291 24.6347 24.2098 21.0505 23.1272 17.7949C22.0445 14.5394 19.3528 12.0768 16.0142 11.2874C12.6751 10.498 9.16582 11.4945 6.73964 13.9206C4.31347 16.3463 3.31742 19.856 4.10677 23.1947C4.89615 26.5338 7.35883 29.2254 10.6143 30.3081C13.8703 31.3908 17.454 30.7096 20.0861 28.5085L21.968 30.3906ZM24.4871 30.3792L34.6082 40.5003C34.6137 40.5069 34.6137 40.5167 34.6082 40.523L33.3197 41.7884L23.1986 31.6442L24.4871 30.3792ZM13.7507 29.0569C11.5958 29.0569 9.52926 28.2008 8.00547 26.677C6.48158 25.1531 5.62558 23.0865 5.62558 20.9318C5.62558 18.7771 6.48161 16.7104 8.00547 15.1866C9.52936 13.6627 11.5959 12.8067 13.7507 12.8067C15.9054 12.8067 17.9721 13.6627 19.4959 15.1866C21.0198 16.7105 21.8758 18.7771 21.8758 20.9318C21.8734 23.0858 21.0166 25.1512 19.4932 26.6743C17.9701 28.1978 15.9047 29.0546 13.7507 29.0569Z" fill="#8A4D00"/>
<path d="M18.1874 18.8681C17.8965 18.4799 17.3459 18.4011 16.9577 18.6916L13.0296 21.6346L12.0783 20.128C11.8195 19.7178 11.2771 19.5951 10.867 19.8539C10.4564 20.1127 10.3337 20.655 10.5929 21.0655L12.052 23.3772L12.0516 23.3768C12.1857 23.5803 12.3971 23.7203 12.6367 23.7646C12.8763 23.8089 13.1237 23.7532 13.3214 23.6113L18.011 20.0977C18.3992 19.8068 18.478 19.2562 18.1875 18.868L18.1874 18.8681Z" fill="#8A4D00"/>
</svg>
