<svg width="62" height="58" viewBox="0 0 62 58" fill="none" xmlns="http://www.w3.org/2000/svg">
<path d="M57.7754 0.0478516H4.26854C2.31088 0.0478516 0.717285 1.64133 0.717285 3.59911V39.2155C0.717285 41.1732 2.31076 42.7668 4.26854 42.7668H33.6153C34.2626 44.1747 35.4405 44.3234 35.8338 44.5522L31.3026 52.5986C31.1572 52.8566 31.1868 53.1784 31.3783 53.4049C31.5679 53.6296 31.8815 53.714 32.16 53.616L36.4068 52.1022L37.2947 56.5071C37.354 56.7975 37.5869 57.0213 37.88 57.0687C37.9169 57.0741 37.9538 57.0769 37.9907 57.0769C38.2442 57.0769 38.4826 56.9411 38.6093 56.7154L43.1199 48.7119C43.5835 48.8162 43.8383 48.8007 44.1847 48.7305L48.6891 56.7154C48.8167 56.9411 49.0542 57.0769 49.3076 57.0769C49.3445 57.0769 49.3814 57.0742 49.4184 57.0687C49.7114 57.0218 49.9444 56.798 50.0036 56.5071L50.8925 52.1022L55.1393 53.616C55.4187 53.7158 55.7314 53.6306 55.921 53.4049C56.1124 53.1784 56.1421 52.8566 55.9967 52.5986L51.4837 44.5928C52.2198 44.1575 53.2536 43.8804 53.7285 42.7669L57.7747 42.7674C59.7324 42.7674 61.326 41.1739 61.326 39.2161L61.3264 3.5997C61.3264 1.64157 59.733 0.0479758 57.7747 0.0479758L57.7754 0.0478516ZM11.5615 36.6118C11.2433 34.1759 9.30837 32.241 6.87253 31.9228V10.8923C9.30837 10.5741 11.2433 8.63917 11.5615 6.20333H50.4825C50.8006 8.63964 52.7356 10.5741 55.1714 10.8923V31.9216C54.7484 31.9768 54.335 32.0821 53.9376 32.233C53.51 30.2689 51.1526 30.4758 50.756 29.1157C50.2437 27.4091 48.301 26.5896 47.0908 27.0736C46.2494 27.2104 45.7891 26.7008 45.6437 26.5973C44.4663 25.5608 42.7397 25.5827 41.5883 26.6602C41.0095 27.2031 40.473 27.1133 39.9516 27.0285C38.3252 26.7537 36.9665 27.7337 36.5435 29.1216C36.3926 29.6358 35.997 30.0328 35.4755 30.1841C34.136 30.5921 33.1322 31.8793 33.3866 33.6328C33.6601 35.4807 32.6956 34.8275 32.284 36.6115L11.5615 36.6118ZM38.3097 54.354L37.6364 51.017C37.5959 50.8155 37.4692 50.6405 37.2896 50.5389C37.1815 50.4787 37.0612 50.4473 36.94 50.4473C36.8593 50.4473 36.7791 50.4609 36.7016 50.4887L33.4721 51.6401L36.7097 45.8906C37.2809 47.0921 38.214 47.6349 39.4975 47.6007C40.4556 47.5793 40.5513 47.165 41.8203 48.124L38.3097 54.354ZM50.598 50.4892C50.4038 50.42 50.19 50.4391 50.01 50.5394C49.8304 50.641 49.7037 50.8161 49.6631 51.0175L48.989 54.3563L45.4738 48.124C46.8293 47.1039 46.7464 47.6072 47.859 47.6072C49.7128 47.6072 50.4034 46.1112 50.5875 45.8951L53.8265 51.6401L50.598 50.4892ZM49.6344 44.4867C49.3026 45.0966 49.0966 46.4467 47.3959 46.1304C44.7549 45.619 44.3584 48.5307 42.5575 46.8797C40.3581 44.8231 39.2314 47.7285 37.7623 44.7124C36.7586 42.4033 34.3433 43.4972 34.8045 41.0719C35.0055 39.9656 34.6783 39.0471 34.0461 38.378C33.5201 37.8215 33.4202 36.8953 34.0597 36.1974C35.268 34.9011 34.7517 33.5642 34.7517 33.0796C34.7517 31.0317 37.1775 32.0089 37.9036 29.5276C38.1178 28.8252 38.797 28.2801 39.7182 28.43C40.3276 28.5316 41.4662 28.7203 42.5584 27.6984C43.191 27.1063 44.1086 27.1063 44.7408 27.6984C45.5954 28.4874 46.8976 28.693 47.5882 28.4122C48.379 28.2764 49.1611 28.749 49.3937 29.5194C50.1389 32.0829 53.0306 31.0887 52.505 33.4544C52.2566 34.6432 52.6933 35.7271 53.3004 36.2549C54.3857 37.5253 52.8478 38.7828 53.2439 38.3868C52.2589 39.4246 52.4143 40.5044 52.5068 41.1504C52.84 43.4208 50.6941 42.5451 49.6344 44.4869L49.6344 44.4867ZM59.9052 39.2158C59.9052 40.3903 58.9489 41.3467 57.7743 41.3467H53.9514C53.9427 41.2195 53.9341 41.0942 53.9131 40.9469C53.7235 39.6411 54.1852 39.5654 54.27 39.3685C54.2745 39.364 54.2791 39.3594 54.2837 39.3548C55.5048 38.0636 55.2404 36.0087 54.2271 35.1718C53.929 34.8218 53.7791 34.3687 53.8793 33.835C55.4501 32.9443 56.5905 33.6659 56.5905 32.5865V10.2281C56.5905 9.8361 56.2723 9.51796 55.8803 9.51796C53.6606 9.51796 51.8555 7.71246 51.8555 5.49319C51.8555 5.10119 51.5374 4.78304 51.1454 4.78304H10.8965C10.5045 4.78304 10.1864 5.1012 10.1864 5.49319C10.1864 7.71292 8.38086 9.51796 6.16159 9.51796C5.76959 9.51796 5.45144 9.83612 5.45144 10.2281V32.5865C5.45144 32.9785 5.7696 33.2967 6.16159 33.2967C8.38133 33.2967 10.1864 35.1022 10.1864 37.3214C10.1864 37.7134 10.5045 38.0316 10.8965 38.0316H32.3004C32.6746 39.5107 33.6619 39.4441 33.4071 40.8134C33.3766 40.9798 33.3524 41.1557 33.341 41.3462L4.26728 41.3467C3.09271 41.3467 2.13634 40.3904 2.13634 39.2158V3.59935C2.13634 2.42478 3.09262 1.46841 4.26728 1.46841H57.7742C58.9487 1.46841 59.9051 2.4247 59.9051 3.59935L59.9052 39.2158Z" fill="#8A4D00"/>
<path d="M13.2722 13.6654H48.7696C49.1615 13.6654 49.4797 13.3472 49.4797 12.9553C49.4797 12.5633 49.1615 12.2451 48.7696 12.2451H13.2722C12.8802 12.2451 12.562 12.5633 12.562 12.9553C12.5616 13.3473 12.8797 13.6654 13.2722 13.6654Z" fill="#8A4D00"/>
<path d="M49.4802 17.9572C49.4802 17.5652 49.162 17.2471 48.77 17.2471H13.2726C12.8806 17.2471 12.5625 17.5652 12.5625 17.9572C12.5625 18.3492 12.8807 18.6674 13.2726 18.6674H48.77C49.1625 18.6674 49.4802 18.3492 49.4802 17.9572Z" fill="#8A4D00"/>
<path d="M42.3388 22.957C42.3388 22.565 42.0207 22.2468 41.6287 22.2468H20.415C20.023 22.2468 19.7048 22.565 19.7048 22.957C19.7048 23.349 20.023 23.6671 20.415 23.6671H41.6287C42.0207 23.6676 42.3388 23.3494 42.3388 22.957Z" fill="#8A4D00"/>
<path d="M43.6563 30.4438C39.8736 30.4438 36.7969 33.516 36.7969 37.2933C36.7969 41.0691 39.8736 44.1418 43.6563 44.1418C47.4322 44.1418 50.5048 41.0696 50.5048 37.2933C50.5048 33.516 47.4322 30.4438 43.6563 30.4438ZM43.6563 42.7205C40.6571 42.7205 38.2177 40.2856 38.2177 37.2927C38.2177 34.299 40.6571 31.864 43.6563 31.864C46.6491 31.864 49.0841 34.299 49.0841 37.2927C49.0841 40.2851 46.6492 42.7205 43.6563 42.7205Z" fill="#8A4D00"/>
</svg>
