<svg width="70" height="58" viewBox="0 0 70 58" fill="none" xmlns="http://www.w3.org/2000/svg">
<path d="M3.94905 52.9286H28.58C29.3307 52.9286 30.0303 53.4063 30.4081 54.1747C31.2891 55.9648 33.0713 57.077 35.0616 57.077C37.0495 57.077 38.8332 55.9648 39.7152 54.1732C40.092 53.4053 40.793 52.9286 41.5432 52.9286H66.1742C67.89 52.9286 69.2856 51.533 69.2856 49.8172V10.4081C69.2856 8.69231 67.89 7.29673 66.1742 7.29673H64.1002V3.15925C64.1002 1.44343 62.7047 0.0478516 60.9888 0.0478516H38.6914C37.2176 0.0478516 35.9174 0.747856 35.0615 1.81782C34.2055 0.747894 32.9054 0.0478516 31.4316 0.0478516H9.13416C7.41834 0.0478516 6.02277 1.44343 6.02277 3.15925V7.29673H3.9488C2.23298 7.29673 0.837402 8.69231 0.837402 10.4081V49.8172C0.837402 51.533 2.23298 52.9286 3.9488 52.9286L3.94905 52.9286ZM36.0982 4.71442C36.0982 3.28484 37.2611 2.12148 38.6911 2.12148L60.9886 2.12197C61.5607 2.12197 62.0255 2.58733 62.0255 3.15895V45.6685H36.0987L36.0982 4.71442ZM8.09724 3.15891C8.09724 2.58729 8.56211 2.12193 9.13421 2.12193H31.4317C32.8616 2.12193 34.0246 3.28533 34.0246 4.71487V45.6691L8.0978 45.6686V3.15912L8.09724 3.15891ZM2.91188 10.4078C2.91188 9.82634 3.3674 9.37082 3.94885 9.37082H6.02282V46.7058C6.02282 47.2784 6.4867 47.7428 7.05979 47.7428H63.0616C63.6347 47.7428 64.0986 47.2784 64.0986 46.7058V9.37082H66.1726C66.7447 9.37082 67.2096 9.83617 67.2096 10.4078V49.8169C67.2096 50.3885 66.7447 50.8538 66.1726 50.8538H41.5429C39.9943 50.8538 38.5806 51.7762 37.8534 53.2584C37.3236 54.3337 36.2532 55.0023 35.0613 55.0023C33.8684 55.0023 32.7979 54.3343 32.2691 53.2594C31.5411 51.7758 30.1273 50.8538 28.5797 50.8538H3.9487C3.37659 50.8538 2.91172 50.3885 2.91172 49.8169L2.91188 10.4078Z" fill="#8A4D00"/>
<path d="M57.358 8.19019H49.5758C49.0027 8.19019 48.5388 8.65456 48.5388 9.22716C48.5388 9.79976 49.0027 10.2641 49.5758 10.2641H57.358C57.9311 10.2641 58.395 9.79976 58.395 9.22716C58.395 8.65456 57.9311 8.19019 57.358 8.19019Z" fill="#8A4D00"/>
<path d="M40.7652 10.2656H45.3917C45.9648 10.2656 46.4287 9.80122 46.4287 9.22862C46.4287 8.65602 45.9648 8.19165 45.3917 8.19165H40.7652C40.1922 8.19165 39.7283 8.65602 39.7283 9.22862C39.7283 9.80122 40.1922 10.2656 40.7652 10.2656Z" fill="#8A4D00"/>
<path d="M57.3578 17.9675H52.0653C51.4922 17.9675 51.0283 18.4319 51.0283 19.0045C51.0283 19.5771 51.4922 20.0415 52.0653 20.0415H57.3578C57.9309 20.0415 58.3948 19.5771 58.3948 19.0045C58.3948 18.4319 57.9309 17.9675 57.3578 17.9675Z" fill="#8A4D00"/>
<path d="M47.5896 17.9675H40.7648C40.1917 17.9675 39.7278 18.4319 39.7278 19.0045C39.7278 19.5771 40.1917 20.0415 40.7648 20.0415H47.5896C48.1627 20.0415 48.6266 19.5771 48.6266 19.0045C48.6266 18.4319 48.1627 17.9675 47.5896 17.9675Z" fill="#8A4D00"/>
<path d="M57.358 27.7449H50.5602C49.9871 27.7449 49.5232 28.2092 49.5232 28.7818C49.5232 29.3544 49.9871 29.8188 50.5602 29.8188H57.358C57.931 29.8188 58.3949 29.3544 58.3949 28.7818C58.3949 28.2092 57.931 27.7449 57.358 27.7449Z" fill="#8A4D00"/>
<path d="M46.058 27.7449H40.7655C40.1924 27.7449 39.7285 28.2092 39.7285 28.7818C39.7285 29.3544 40.1924 29.8188 40.7655 29.8188H46.058C46.6311 29.8188 47.095 29.3544 47.095 28.7818C47.095 28.2092 46.6311 27.7449 46.058 27.7449Z" fill="#8A4D00"/>
<path d="M57.3582 37.5222H50.3192C49.7461 37.5222 49.2822 37.9866 49.2822 38.5592C49.2822 39.1318 49.7461 39.5962 50.3192 39.5962H57.3582C57.9312 39.5962 58.3951 39.1318 58.3951 38.5592C58.3951 37.9866 57.9312 37.5222 57.3582 37.5222Z" fill="#8A4D00"/>
<path d="M45.6918 37.5222H40.7648C40.1917 37.5222 39.7278 37.9866 39.7278 38.5592C39.7278 39.1318 40.1917 39.5962 40.7648 39.5962H45.6918C46.2649 39.5962 46.7288 39.1318 46.7288 38.5592C46.7293 37.9866 46.2654 37.5222 45.6918 37.5222Z" fill="#8A4D00"/>
<path d="M29.357 8.19019H21.5748C21.0017 8.19019 20.5378 8.65456 20.5378 9.22716C20.5378 9.79976 21.0017 10.2641 21.5748 10.2641H29.357C29.9301 10.2641 30.394 9.79976 30.394 9.22716C30.394 8.65456 29.9301 8.19019 29.357 8.19019Z" fill="#8A4D00"/>
<path d="M12.763 10.2656H17.3895C17.9626 10.2656 18.4265 9.80122 18.4265 9.22862C18.4265 8.65602 17.9626 8.19165 17.3895 8.19165H12.763C12.19 8.19165 11.7261 8.65602 11.7261 9.22862C11.7261 9.80122 12.19 10.2656 12.763 10.2656Z" fill="#8A4D00"/>
<path d="M29.3571 17.9675H24.0646C23.4915 17.9675 23.0276 18.4319 23.0276 19.0045C23.0276 19.5771 23.4915 20.0415 24.0646 20.0415H29.3571C29.9302 20.0415 30.3941 19.5771 30.3941 19.0045C30.3941 18.4319 29.9302 17.9675 29.3571 17.9675Z" fill="#8A4D00"/>
<path d="M19.5884 17.9675H12.7635C12.1904 17.9675 11.7266 18.4319 11.7266 19.0045C11.7266 19.5771 12.1904 20.0415 12.7635 20.0415H19.5884C20.1615 20.0415 20.6254 19.5771 20.6254 19.0045C20.6259 18.4319 20.162 17.9675 19.5884 17.9675Z" fill="#8A4D00"/>
<path d="M29.357 27.7449H22.5592C21.9861 27.7449 21.5222 28.2092 21.5222 28.7818C21.5222 29.3544 21.9861 29.8188 22.5592 29.8188H29.357C29.9301 29.8188 30.394 29.3544 30.394 28.7818C30.394 28.2092 29.9301 27.7449 29.357 27.7449Z" fill="#8A4D00"/>
<path d="M18.0558 27.7449H12.7633C12.1902 27.7449 11.7263 28.2092 11.7263 28.7818C11.7263 29.3544 12.1902 29.8188 12.7633 29.8188H18.0558C18.6289 29.8188 19.0928 29.3544 19.0928 28.7818C19.0933 28.2092 18.6294 27.7449 18.0558 27.7449Z" fill="#8A4D00"/>
<path d="M29.3569 37.5222H22.318C21.7449 37.5222 21.281 37.9866 21.281 38.5592C21.281 39.1318 21.7449 39.5962 22.318 39.5962H29.3569C29.93 39.5962 30.3939 39.1318 30.3939 38.5592C30.3939 37.9866 29.93 37.5222 29.3569 37.5222Z" fill="#8A4D00"/>
<path d="M17.6906 37.5222H12.7635C12.1904 37.5222 11.7266 37.9866 11.7266 38.5592C11.7266 39.1318 12.1904 39.5962 12.7635 39.5962H17.6906C18.2637 39.5962 18.7276 39.1318 18.7276 38.5592C18.7276 37.9866 18.2637 37.5222 17.6906 37.5222Z" fill="#8A4D00"/>
</svg>
