<svg width="58" height="58" viewBox="0 0 58 58" fill="none" xmlns="http://www.w3.org/2000/svg">
<path d="M57.735 42.6755H55.7199C55.9123 38.5041 54.567 34.9544 51.8375 32.5684C50.6886 31.5642 48.7808 29.8902 48.7141 21.6305C51.0752 20.1084 52.6464 17.4612 52.6464 14.4484C52.6464 9.73696 48.8134 5.90362 44.1017 5.90362C43.3028 5.90362 42.5317 6.02175 41.7976 6.22789L41.7972 0.0478516H7.81001V31.6661H0.897461V52.188H19.1152L19.1148 57.077H39.6367V49.3965H57.7341L57.735 42.6755ZM50.3459 34.3255C52.5298 36.2346 53.5991 39.1736 53.4138 42.6755H39.6368V36.5549H35.9742C36.4576 35.7866 37.2114 34.8889 37.8572 34.3243L38.0658 34.1451C39.473 32.9484 41.5609 31.1676 41.7774 22.6641C42.5172 22.8739 43.2951 22.9936 44.1016 22.9936C44.9085 22.9936 45.6876 22.8739 46.4281 22.6637C46.6656 31.1028 48.9355 33.0934 50.3459 34.3257L50.3459 34.3255ZM50.3419 14.4486C50.3419 17.8898 47.5428 20.6889 44.1016 20.6889C40.6599 20.6889 37.8608 17.8898 37.8608 14.4486C37.8608 11.007 40.6599 8.20784 44.1016 8.20784C47.5428 8.20784 50.3419 11.007 50.3419 14.4486ZM10.1137 2.35142H39.4925V7.26455C37.1289 8.78585 35.5562 11.4347 35.5562 14.4488C35.5562 17.4616 37.127 20.1092 39.4888 21.6309C39.4289 29.9551 37.7147 31.4193 36.5727 32.3908L36.3405 32.5901C35.6803 33.1679 34.026 34.8974 33.4108 36.5558L21.4186 36.5553V31.6664H10.1135L10.1137 2.35142ZM3.20115 49.8831V33.9696H19.1147V49.8831H3.20115ZM37.3324 54.7721H21.4189V38.8586H37.3324V54.7721ZM55.4298 47.0912H39.6356V44.9789H55.4298V47.0912Z" fill="#8A4D00"/>
<path d="M33.3855 21.2647L24.8029 9.23438L16.2207 21.2647L24.8029 33.297L33.3855 21.2647ZM24.8029 13.2012L30.5546 21.2651L24.8029 29.3285L19.0512 21.2647L24.8029 13.2012Z" fill="#8A4D00"/>
<path d="M7.87028 36.553C6.85247 36.553 6.02393 37.3815 6.02393 38.3993C6.02393 39.4172 6.85249 40.2449 7.87028 40.2449C8.88808 40.2449 9.71664 39.4163 9.71664 38.3993C9.71624 37.3811 8.88848 36.553 7.87028 36.553Z" fill="#8A4D00"/>
<path d="M14.7089 36.553C13.6911 36.553 12.8625 37.3815 12.8625 38.3993C12.8625 39.4172 13.6911 40.2449 14.7089 40.2449C15.7267 40.2449 16.5544 39.4163 16.5544 38.3993C16.5544 37.3811 15.7259 36.553 14.7089 36.553Z" fill="#8A4D00"/>
<path d="M7.87028 43.3782C6.85247 43.3782 6.02393 44.2067 6.02393 45.2237C6.02393 46.2423 6.85249 47.0701 7.87028 47.0701C8.88808 47.0701 9.71664 46.2415 9.71664 45.2237C9.71624 44.2059 8.88848 43.3782 7.87028 43.3782Z" fill="#8A4D00"/>
<path d="M14.7089 43.3782C13.6911 43.3782 12.8625 44.2067 12.8625 45.2237C12.8625 46.2423 13.6911 47.0701 14.7089 47.0701C15.7267 47.0701 16.5544 46.2415 16.5544 45.2237C16.5544 44.2059 15.7259 43.3782 14.7089 43.3782Z" fill="#8A4D00"/>
<path d="M26.6239 42.1714C25.6699 42.1714 24.894 42.9473 24.894 43.9012C24.894 44.8551 25.67 45.6318 26.6239 45.6318C27.5777 45.6318 28.3537 44.8555 28.3537 43.9012C28.3537 42.9473 27.5777 42.1714 26.6239 42.1714Z" fill="#8A4D00"/>
<path d="M32.3197 47.856C31.3657 47.856 30.5898 48.6323 30.5898 49.5866C30.5898 50.5405 31.3658 51.3164 32.3197 51.3164C33.2736 51.3164 34.0503 50.5405 34.0503 49.5866C34.0499 48.6327 33.2736 47.856 32.3197 47.856Z" fill="#8A4D00"/>
</svg>
