<svg width="46" height="46" viewBox="0 0 46 46" fill="none" xmlns="http://www.w3.org/2000/svg">
<path d="M22.5192 0.306641C10.0884 0.306641 0.0198975 10.3752 0.0198975 22.806C0.0198975 35.2367 10.0884 45.3053 22.5192 45.3053C34.95 45.3053 45.0185 35.2367 45.0185 22.806C45.0185 10.3752 34.95 0.306641 22.5192 0.306641ZM31.3312 28.0181C32.325 29.0118 32.325 30.6242 31.3312 31.618C30.8625 32.0867 30.1875 32.3492 29.5313 32.3492C28.8563 32.3492 28.2001 32.0867 27.7313 31.618L22.519 26.4244L17.3067 31.6367C16.838 32.1054 16.163 32.3679 15.5068 32.3679C14.8318 32.3679 14.1756 32.1054 13.7069 31.6367C12.7131 30.6429 12.7131 29.0305 13.7069 28.0368L18.9192 22.8245L13.7069 17.6122C12.7131 16.6184 12.7131 15.006 13.7069 14.0123C14.7006 13.0185 16.313 13.0185 17.3067 14.0123L22.519 19.2246L27.7313 13.9935C28.7251 12.9998 30.3375 12.9998 31.3312 13.9935C32.325 14.9873 32.325 16.5997 31.3312 17.5934L26.1189 22.8057L31.3312 28.0181Z" fill="white"/>
</svg>
