<svg width="20" height="20" viewBox="0 0 20 20" fill="none" xmlns="http://www.w3.org/2000/svg">
<path d="M9.88806 19.186C4.63931 19.186 0.388062 14.9348 0.388062 9.68604C0.388062 4.43729 4.63931 0.186035 9.88806 0.186035C15.1368 0.186035 19.3881 4.43729 19.3881 9.68604C19.3881 14.9348 15.1368 19.186 9.88806 19.186ZM9.88806 1.37354C5.30431 1.37354 1.57556 5.10229 1.57556 9.68604C1.57556 14.2698 5.30431 17.9985 9.88806 17.9985C14.4718 17.9985 18.2006 14.2698 18.2006 9.68604C18.2006 5.10229 14.4718 1.37354 9.88806 1.37354Z" fill="black"/>
<path d="M12.4156 12.8528C12.2371 12.8528 12.0587 12.7795 11.9313 12.6329L9.40769 9.82392C9.30573 9.70179 9.25475 9.57966 9.25475 9.4331V4.59674C9.25475 4.25477 9.53514 3.98608 9.89201 3.98608C10.2489 3.98608 10.5293 4.25477 10.5293 4.59674V9.21326L12.8999 11.8513C13.1293 12.0955 13.1038 12.4864 12.8234 12.7062C12.7215 12.8039 12.5685 12.8528 12.4156 12.8528Z" fill="black"/>
</svg>
