<svg width="36" height="36" viewBox="0 0 36 36" fill="none" xmlns="http://www.w3.org/2000/svg">
<path d="M35.861 18.2224C35.8606 14.8417 34.8914 11.5319 33.0684 8.68477C31.2453 5.83769 28.6446 3.5726 25.5742 2.15766C22.5037 0.742724 19.0922 0.237192 15.7434 0.700914C12.3946 1.16464 9.24879 2.57819 6.6784 4.77423C4.10802 6.97028 2.22069 9.85684 1.23986 13.0922C0.259041 16.3275 0.225837 19.7762 1.1441 23.0298C2.06236 26.2835 3.89369 29.2059 6.42126 31.4511C8.94883 33.6963 12.0668 35.1702 15.406 35.6984V23.3364H10.914V18.2224H15.406V14.3224C15.406 9.88844 18.047 7.43945 22.088 7.43945C23.4147 7.4579 24.7383 7.57354 26.048 7.78545V12.1384H23.817C23.4369 12.088 23.0503 12.1238 22.6858 12.243C22.3214 12.3622 21.9884 12.5618 21.7115 12.8272C21.4347 13.0925 21.2211 13.4167 21.0865 13.7757C20.9519 14.1348 20.8998 14.5195 20.934 14.9014V18.2194H25.845L25.061 23.3334H20.939V35.6954C25.0984 35.0344 28.8857 32.912 31.6207 29.7094C34.3557 26.5068 35.8592 22.434 35.861 18.2224Z" fill="#222222"/>
</svg>
