<svg width="36" height="36" viewBox="0 0 36 36" fill="none" xmlns="http://www.w3.org/2000/svg">
<path d="M35.861 18.2237C35.861 21.7227 34.8234 25.1431 32.8795 28.0524C30.9355 30.9617 28.1725 33.2292 24.9398 34.5682C21.7072 35.9071 18.1501 36.2574 14.7184 35.5747C11.2866 34.892 8.13434 33.207 5.66024 30.7328C3.18615 28.2586 1.50131 25.1062 0.818814 21.6745C0.136316 18.2427 0.486812 14.6856 1.82596 11.453C3.1651 8.22038 5.43279 5.45749 8.34219 3.5137C11.2516 1.56991 14.6721 0.532517 18.171 0.532715C20.4942 0.532715 22.7946 0.990311 24.9409 1.87938C27.0873 2.76845 29.0374 4.07158 30.6801 5.71436C32.3228 7.35713 33.6258 9.30737 34.5147 11.4537C35.4037 13.6001 35.8612 15.9006 35.861 18.2237Z" fill="#222222"/>
<path d="M23.662 11.5317C23.4215 11.5317 23.1865 11.603 22.9865 11.7367C22.7865 11.8703 22.6307 12.0602 22.5386 12.2824C22.4466 12.5046 22.4225 12.7491 22.4694 12.985C22.5163 13.2208 22.6322 13.4375 22.8022 13.6076C22.9723 13.7776 23.189 13.8934 23.4249 13.9404C23.6607 13.9873 23.9052 13.9632 24.1274 13.8712C24.3496 13.7791 24.5395 13.6233 24.6731 13.4233C24.8068 13.2233 24.878 12.9882 24.878 12.7477C24.8782 12.588 24.8468 12.4298 24.7858 12.2822C24.7247 12.1346 24.6351 12.0005 24.5222 11.8876C24.4093 11.7747 24.2751 11.6851 24.1275 11.624C23.98 11.563 23.8218 11.5316 23.662 11.5317V11.5317Z" fill="white"/>
<path d="M18.255 13.0916C17.2447 13.0918 16.2572 13.3915 15.4173 13.953C14.5774 14.5144 13.9228 15.3123 13.5364 16.2457C13.15 17.1792 13.049 18.2062 13.2463 19.1971C13.4436 20.1879 13.9303 21.0979 14.6448 21.8122C15.3593 22.5264 16.2695 23.0127 17.2604 23.2096C18.2513 23.4065 19.2783 23.3051 20.2116 22.9184C21.1449 22.5316 21.9426 21.8767 22.5037 21.0366C23.0648 20.1965 23.3642 19.2088 23.364 18.1985C23.3621 16.8443 22.8232 15.5461 21.8654 14.5887C20.9077 13.6313 19.6092 13.0929 18.255 13.0916V13.0916ZM18.255 21.4715C17.6079 21.4715 16.9753 21.2797 16.4372 20.9202C15.8992 20.5607 15.4798 20.0497 15.2321 19.4519C14.9845 18.8541 14.9196 18.1963 15.0457 17.5616C15.1719 16.9269 15.4834 16.3439 15.9409 15.8862C16.3984 15.4286 16.9814 15.1169 17.616 14.9905C18.2507 14.8642 18.9085 14.9288 19.5064 15.1763C20.1043 15.4238 20.6154 15.8431 20.9751 16.381C21.3347 16.9189 21.5267 17.5514 21.5269 18.1985C21.5261 19.0662 21.1812 19.8981 20.5678 20.5117C19.9544 21.1253 19.1226 21.4705 18.255 21.4715V21.4715Z" fill="white"/>
<path d="M22.3111 28.5706H14.0291C12.3771 28.5688 10.7933 27.9117 9.62512 26.7436C8.45698 25.5754 7.79995 23.9916 7.7981 22.3396V14.0586C7.79995 12.4066 8.45698 10.8228 9.62512 9.65471C10.7933 8.48657 12.3771 7.82949 14.0291 7.82764H22.3111C23.9631 7.82949 25.5469 8.48657 26.715 9.65471C27.8832 10.8228 28.5402 12.4066 28.5421 14.0586V22.3396C28.5402 23.9916 27.8832 25.5754 26.715 26.7436C25.5469 27.9117 23.9631 28.5688 22.3111 28.5706ZM14.0291 9.77864C12.8947 9.77996 11.8072 10.2312 11.0052 11.0334C10.2032 11.8357 9.75216 12.9233 9.7511 14.0576V22.3386C9.75216 23.473 10.2032 24.5606 11.0052 25.3628C11.8072 26.165 12.8947 26.6163 14.0291 26.6176H22.3111C23.4455 26.6166 24.5332 26.1654 25.3353 25.3631C26.1373 24.5608 26.5883 23.4731 26.5891 22.3386V14.0586C26.5885 12.924 26.1377 11.836 25.3356 11.0335C24.5335 10.231 23.4457 9.7797 22.3111 9.77864H14.0291Z" fill="white"/>
</svg>
