<svg width="36" height="37" viewBox="0 0 36 37" fill="none" xmlns="http://www.w3.org/2000/svg">
<path d="M17.6306 0.924805C12.9547 0.924805 8.47033 2.78238 5.16365 6.08845C1.85758 9.39493 0 13.8793 0 18.5554C0 23.2315 1.85758 27.7157 5.16365 31.0224C8.47012 34.3284 12.9545 36.186 17.6306 36.186C22.3067 36.186 26.7909 34.3284 30.0976 31.0224C33.4036 27.7159 35.2612 23.2315 35.2612 18.5554C35.2612 15.4608 34.4467 12.4202 32.8992 9.74021C31.3517 7.06018 29.126 4.83453 26.446 3.28702C23.766 1.73952 20.7254 0.925008 17.6308 0.925008L17.6306 0.924805ZM17.6306 33.0747C13.7795 33.0747 10.0866 31.5451 7.36376 28.8217C4.64038 26.0988 3.11079 22.4059 3.11079 18.5549C3.11079 14.7039 4.64038 11.0109 7.36376 8.28805C10.0867 5.56468 13.7796 4.03508 17.6306 4.03508C21.4816 4.03508 25.1746 5.56468 27.8975 8.28805C30.6208 11.011 32.1504 14.7039 32.1504 18.5549C32.1536 22.4068 30.6248 26.1016 27.901 28.8258C25.1772 31.55 21.4824 33.0784 17.6301 33.0752L17.6306 33.0747Z" fill="#8A4D00"/>
<path d="M19.7086 9.09351L21.9049 11.2902L14.6392 18.5558L21.9049 25.8215L19.7086 28.0181L10.2463 18.5558L19.7086 9.09351Z" fill="#8A4D00"/>
</svg>
