<svg width="36" height="36" viewBox="0 0 36 36" fill="none" xmlns="http://www.w3.org/2000/svg">
<path d="M17.6306 0C22.3065 0 26.7909 1.85757 30.0976 5.16364C33.4037 8.47012 35.2612 12.9545 35.2612 17.6306C35.2612 22.3067 33.4037 26.7909 30.0976 30.0976C26.7911 33.4036 22.3067 35.2612 17.6306 35.2612C12.9545 35.2612 8.47033 33.4036 5.16363 30.0976C1.85763 26.7911 3.05176e-05 22.3067 3.05176e-05 17.6306C3.05176e-05 14.536 0.81453 11.4954 2.36203 8.8154C3.90953 6.13537 6.13523 3.90973 8.81523 2.36222C11.4952 0.814715 14.5358 0.000203013 17.6304 0.000203013L17.6306 0ZM17.6306 32.1499C21.4817 32.1499 25.1746 30.6203 27.8975 27.8969C30.6209 25.174 32.1504 21.4811 32.1504 17.6301C32.1504 13.7791 30.6209 10.0861 27.8975 7.36324C25.1745 4.63987 21.4816 3.11028 17.6306 3.11028C13.7796 3.11028 10.0866 4.63987 7.36373 7.36324C4.64043 10.0862 3.11083 13.7791 3.11083 17.6301C3.10763 21.482 4.63643 25.1768 7.36023 27.901C10.084 30.6252 13.7788 32.1536 17.6311 32.1504L17.6306 32.1499Z" fill="#8A4D00"/>
<path d="M15.5526 8.1687L13.3563 10.3654L20.622 17.631L13.3563 24.8967L15.5526 27.0933L25.0149 17.631L15.5526 8.1687Z" fill="#8A4D00"/>
</svg>
