<svg width="36" height="36" viewBox="0 0 36 36" fill="none" xmlns="http://www.w3.org/2000/svg">
<path d="M35.861 18.2237C35.861 21.7227 34.8234 25.1431 32.8795 28.0524C30.9355 30.9617 28.1725 33.2292 24.9398 34.5682C21.7072 35.9071 18.1501 36.2574 14.7184 35.5747C11.2866 34.892 8.13434 33.207 5.66024 30.7328C3.18615 28.2586 1.50131 25.1062 0.818814 21.6745C0.136316 18.2427 0.486812 14.6856 1.82596 11.453C3.1651 8.22038 5.43279 5.45749 8.34219 3.5137C11.2516 1.56991 14.6721 0.532517 18.171 0.532715C22.8628 0.53298 27.3623 2.39697 30.6798 5.71465C33.9973 9.03232 35.861 13.5319 35.861 18.2237Z" fill="#222222"/>
<path d="M27.945 12.1626C27.321 12.4301 26.6654 12.617 25.994 12.7186C26.307 12.6656 26.768 12.0976 26.953 11.8676C27.2415 11.5184 27.4611 11.1177 27.6 10.6866C27.617 10.6536 27.63 10.6116 27.6 10.5866C27.5839 10.58 27.5663 10.5773 27.5489 10.5789C27.5315 10.5805 27.5147 10.5862 27.5 10.5956C26.7685 10.9857 25.9912 11.283 25.186 11.4806C25.1581 11.4893 25.1283 11.49 25.1 11.4826C25.0717 11.4751 25.0461 11.4599 25.026 11.4386C24.9652 11.3642 24.8983 11.2949 24.826 11.2316C24.4921 10.9437 24.1139 10.7118 23.706 10.5446C23.1612 10.3239 22.5736 10.2292 21.987 10.2676C21.4173 10.3066 20.8619 10.4636 20.356 10.7286C19.849 10.9932 19.4015 11.3587 19.041 11.8026C18.6667 12.2633 18.3984 12.8006 18.255 13.3766C18.1325 13.9222 18.1185 14.4866 18.214 15.0376C18.226 15.1306 18.214 15.1426 18.134 15.1306C15.0727 14.8188 12.2379 13.376 10.184 11.0846C10.092 10.9786 10.041 10.9786 9.96504 11.0926C9.55202 11.8548 9.39578 12.7299 9.51954 13.5879C9.6433 14.4459 10.0404 15.2412 10.652 15.8556C10.807 16.0026 10.968 16.1506 11.14 16.2846C10.6053 16.2448 10.0838 16.099 9.60603 15.8556C9.51403 15.7966 9.468 15.8296 9.459 15.9356C9.45318 16.0877 9.46157 16.24 9.48402 16.3906C9.57772 17.1063 9.85971 17.7843 10.3012 18.3553C10.7427 18.9263 11.328 19.3698 11.997 19.6406C12.1608 19.7112 12.3318 19.7635 12.507 19.7966C12.0114 19.8952 11.5028 19.9107 11.002 19.8426C10.892 19.8216 10.85 19.8766 10.892 19.9816C11.1496 20.6558 11.5754 21.253 12.1288 21.7163C12.6822 22.1796 13.345 22.4937 14.054 22.6286C14.196 22.6536 14.34 22.6536 14.483 22.6876C14.474 22.7006 14.467 22.7006 14.458 22.7136C13.8438 23.2668 13.1025 23.6597 12.3 23.8576C11.2496 24.232 10.1308 24.375 9.02003 24.2766C8.84503 24.2506 8.80702 24.2526 8.76002 24.2766C8.71302 24.3006 8.75401 24.3486 8.81001 24.3946C9.03401 24.5426 9.26099 24.6726 9.49299 24.7946C10.1892 25.1659 10.9239 25.46 11.684 25.6716C13.6398 26.2596 15.7156 26.3243 17.7042 25.8593C19.6929 25.3943 21.5248 24.4159 23.017 23.0216C24.0914 21.8573 24.9222 20.4901 25.4608 19.0001C25.9993 17.5102 26.2347 15.9277 26.153 14.3456C26.153 14.2206 26.301 14.1516 26.389 14.0866C26.9777 13.6307 27.4972 13.0918 27.931 12.4866C27.9982 12.3982 28.0335 12.2896 28.031 12.1786V12.1626C28.024 12.1116 28.023 12.1266 27.945 12.1626Z" fill="white"/>
</svg>
