<svg width="17" height="20" viewBox="0 0 17 20" fill="none" xmlns="http://www.w3.org/2000/svg">
<path d="M8.59206 0.55127C11.1211 0.55127 13.2372 2.61579 13.2372 5.19643C13.2372 7.72546 11.1211 9.78998 8.59206 9.78998C6.01142 9.78998 3.9469 7.72546 3.9469 5.19643C3.9469 2.61579 6.01142 0.55127 8.59206 0.55127ZM8.59206 1.84159C6.734 1.84159 5.28883 3.33837 5.28883 5.19643C5.28883 7.00288 6.734 8.49966 8.59206 8.49966C10.3985 8.49966 11.8953 7.00288 11.8953 5.19643C11.8953 3.33837 10.3985 1.84159 8.59206 1.84159Z" fill="black"/>
<path d="M4.4114 10.0996H12.7211C14.8372 10.0996 16.592 11.8028 16.592 13.919V18.1512C16.592 18.6157 16.1791 19.0286 15.7146 19.0286H1.46946C1.00494 19.0286 0.592041 18.6157 0.592041 18.1512V13.919C0.592041 11.8028 2.29527 10.0996 4.4114 10.0996ZM12.7211 11.3899H4.4114C3.01785 11.3899 1.88236 12.5254 1.88236 13.919V17.7383H15.2501V13.919C15.2501 12.5254 14.1146 11.3899 12.7211 11.3899Z" fill="black"/>
</svg>
