<svg width="278" height="64" viewBox="0 0 278 64" fill="none" xmlns="http://www.w3.org/2000/svg">
<g clip-path="url(#clip0_2_2400)">
<path d="M23.1141 63.8375C23.8298 63.7187 24.5902 63.7323 25.291 63.5872C25.8054 63.4168 26.2869 63.2008 26.7239 62.9444C28.1853 63.0076 29.6449 62.8021 30.9599 62.348C32.1917 61.9358 33.4522 61.5678 34.7367 61.2455C35.0066 61.1729 35.4404 61.1109 35.6209 61.2098C36.9121 61.9062 38.0244 61.4201 39.1994 61.0309C40.904 60.3984 42.6704 59.8524 44.4851 59.3972C47.327 58.7923 50.2494 58.3705 53.1465 57.9055C55.9795 57.4511 58.8125 56.9935 61.6753 56.6221C64.4665 56.2571 67.2785 55.9815 70.0891 55.6964C72.6045 55.4408 75.1289 55.2283 77.6517 54.9853C77.8967 54.9687 78.1287 54.8997 78.3167 54.7875C78.4542 54.6604 78.6289 54.5557 78.8288 54.4803C79.0287 54.405 79.2493 54.3608 79.4755 54.3508C79.7017 54.3408 79.9283 54.3653 80.14 54.4225C80.3517 54.4797 80.5434 54.5683 80.7023 54.6823C81.1496 54.9054 82.0309 54.7255 82.7093 54.6823C87.907 54.3394 93.1018 53.9513 98.304 53.642C102.13 53.4148 105.969 53.2885 109.801 53.116C110.647 53.0771 111.567 53.1444 111.98 52.5395C112.591 52.7361 113.239 52.8679 113.905 52.9308C117.389 52.8824 120.872 52.7468 124.354 52.6847C128.272 52.6142 132.191 52.5942 136.108 52.549C144.943 52.448 153.778 52.3481 162.614 52.2492C165.345 52.2208 168.081 52.2492 170.91 52.2492C171.007 51.9536 171.093 51.6822 171.199 51.3571C171.403 51.4255 171.647 51.4476 171.682 51.5244C171.813 51.7995 172.083 52.0306 172.441 52.1731C172.799 52.3156 173.22 52.3592 173.621 52.2955C174.775 52.2071 175.924 52.0956 177.077 52.002C177.256 51.9982 177.434 52.0067 177.611 52.0272C179.196 52.1971 180.799 52.2783 182.403 52.2702C183.93 52.2069 185.461 52.2093 186.988 52.2776C189.265 52.4207 191.559 52.3443 193.806 52.0504C194.392 51.9546 194.971 51.8284 195.728 51.6832C195.835 51.8136 195.983 51.9246 196.161 52.0073C196.339 52.0901 196.542 52.1423 196.754 52.1597C196.966 52.1772 197.181 52.1595 197.381 52.108C197.581 52.0565 197.762 51.9726 197.908 51.8631C198.431 51.5864 199.111 51.2319 199.444 52.0398H202.52L203.355 50.6902C203.544 51.2635 203.653 51.6001 203.802 52.0482H216.291C216.111 51.2382 216.726 50.9185 217.79 50.8122C218.161 51.2569 218.726 51.6049 219.401 51.8041C220.076 52.0034 220.824 52.0433 221.534 51.9178C223.673 51.739 225.847 51.7453 228.094 51.6696C227.882 51.2561 227.724 50.9447 227.565 50.6376C228.995 50.1663 229.096 50.3388 230.24 50.8027C230.958 51.0931 231.637 51.9494 232.818 51.3445C232.923 51.0148 233.1 50.6986 233.343 50.4072C233.444 50.3136 233.711 50.3136 233.984 50.3146C234.119 50.3168 234.254 50.3126 234.388 50.302C235.024 50.2368 235.658 50.16 236.372 50.079C236.158 49.8137 235.833 49.6011 235.443 49.4695C235.052 49.3379 234.614 49.2937 234.186 49.3426C231.652 49.4268 229.108 49.4888 226.566 49.5625C224.329 49.6287 222.102 49.7329 219.867 49.755C217.897 49.7739 215.926 49.6771 213.955 49.6761C212.095 49.6761 210.237 49.7329 208.38 49.7623C208.131 49.7813 207.881 49.7774 207.634 49.7508C205.466 49.4407 203.245 49.3542 201.041 49.4941C199.92 49.5267 198.795 49.5604 197.677 49.5341C195.192 49.4738 192.711 49.4036 190.234 49.3237C189.742 49.309 189.202 49.2837 189.236 48.7777C192.831 48.763 196.428 48.7346 200.022 48.7388C203.154 48.7388 206.277 48.8009 209.404 48.7924C209.932 48.7189 210.44 48.5876 210.91 48.4032C210.646 48.0645 210.433 47.792 210.126 47.3954H213.704C213.726 47.4438 213.75 47.4922 213.774 47.5417C213.078 47.745 212.38 47.9477 211.678 48.1497C214.202 48.8483 216.994 48.9001 219.567 48.2959L218.264 47.7542C219.041 47.3979 219.982 47.2654 220.894 47.3839C221.182 47.3976 221.472 47.4091 221.771 47.407C221.622 47.7615 221.505 48.0561 221.31 48.5284C224.571 48.6568 227.842 48.491 231.043 48.035L229.36 47.7552C229.348 47.6669 229.335 47.5795 229.323 47.4922C229.857 47.4061 230.397 47.3422 230.942 47.3008C231.507 47.2776 232.074 47.2808 232.64 47.2839C233.992 47.3458 235.348 47.2389 236.647 46.9683C236.957 46.8915 237.37 47.0325 237.737 47.0557C238.397 47.1314 239.067 47.1624 239.736 47.1482C241.323 47.0273 241.973 45.9837 241.078 44.8139C242.802 44.8907 244.326 44.7014 245.134 43.3349C244.561 43.3086 244.041 43.2602 243.52 43.2676C243.205 43.3202 242.872 43.2873 242.589 43.1755C242.306 43.0638 242.092 42.8812 241.991 42.6638L244.548 42.2598C244.945 41.6286 245.364 40.9673 245.803 40.2758C245.141 40.0002 244.153 40.0034 244.312 39.267C244.342 39.0216 244.495 38.7919 244.744 38.6195C244.994 38.4472 245.322 38.3436 245.67 38.3276C246.671 38.275 246.777 37.7637 247.161 37.2441C245.902 36.7954 244.477 36.6312 243.08 36.7738C242.589 36.8433 242.084 36.8508 241.589 36.7959C240.307 36.7212 239.019 36.6518 237.747 36.5077C237.404 36.4688 237.122 36.1721 236.811 35.9964C237.109 35.8271 237.407 35.5231 237.719 35.5157C239.563 35.3929 241.423 35.4997 243.215 35.8313C244.283 35.9745 245.386 35.9183 246.414 35.6682C244.178 35.0518 241.809 35.4157 239.529 35.1338C237.269 34.999 235.048 34.6399 232.931 34.0672C233.037 33.962 233.129 33.7842 233.253 33.7705C234.943 33.5411 236.652 33.391 238.37 33.3213C239.085 33.3973 239.815 33.348 240.496 33.178C241.177 33.0079 241.788 32.7222 242.275 32.3461C240.834 32.1358 239.512 31.9464 237.978 31.7234C238.847 31.4735 239.81 31.4401 240.71 31.6287C241.427 31.756 242.174 31.775 242.902 31.6845C242.603 31.4604 242.454 31.2311 242.265 31.21C238.408 30.7893 234.55 30.3864 230.69 29.9856C230.21 29.9607 229.739 29.883 229.293 29.7552C231.06 29.7552 232.834 29.6931 234.594 29.7794C234.999 29.7687 235.39 29.6691 235.712 29.4943C236.234 29.2671 236.729 29.0398 237.297 29.3891C237.546 29.5284 237.834 29.6296 238.142 29.6862C238.45 29.7429 238.772 29.7539 239.086 29.7184C239.356 29.7057 239.628 29.7106 239.897 29.7331C239.964 29.7383 240.057 29.6195 240.28 29.4512L238.895 29.104C239.007 29.0146 239.067 28.9199 239.147 28.9105C240.599 28.7642 242.059 28.6517 243.507 28.4834C245.108 28.2972 246.687 28.0321 248.292 27.8596C249.441 27.7354 250.616 27.7312 251.773 27.6271C254.654 27.3672 257.536 27.1011 260.408 26.795C261.879 26.7321 263.306 26.418 264.566 25.8798C264.816 25.7448 265.127 25.6786 265.442 25.6936C267.492 25.9566 268.442 24.6806 270.117 24.1777L267.258 23.8169L266.363 24.6585L264.559 24.4281C264.042 25.1434 263.356 25.1707 261.538 24.487C262.042 23.6265 263.101 23.5676 264.213 23.435C268.076 23.0244 271.874 22.3501 275.552 21.4216C275.124 21.2085 274.639 21.0583 274.127 20.9797C273.615 20.9011 273.085 20.8958 272.57 20.964C271.721 21.0552 270.852 20.9758 270.064 20.7347C270.696 20.2918 270.468 19.4207 271.88 19.527C271.901 19.7374 271.92 19.9478 271.942 20.1698L276.189 19.344L276.161 19.0873C275.611 18.9366 275.037 18.8344 274.452 18.7833C273.822 18.8302 273.203 18.9276 272.605 19.0736C273 18.2636 273 18.2636 275.266 18.0216C275.406 17.7807 274.984 17.2527 275.821 17.3231C276.729 17.3978 277.101 16.9213 277.802 16.5026C276.696 16.5406 275.587 16.5343 274.482 16.4837C273.95 16.4876 273.424 16.4066 272.943 16.2466C272.463 16.0866 272.039 15.8519 271.705 15.5601C271.774 15.2897 271.846 15.0036 271.917 14.7269C271.09 14.2683 269.625 14.506 269.488 13.3857L274.443 13.0522L274.514 12.8418C274.108 12.7015 273.724 12.5316 273.368 12.3348C273.135 12.1812 273.126 11.8414 272.882 11.7173C272.51 11.5568 272.097 11.4495 271.667 11.4017C271.184 11.3249 270.666 11.3428 270.195 11.246C268.953 10.9914 267.733 10.6811 266.494 10.4244C265.568 10.2826 264.674 10.0515 263.837 9.73749C266.454 9.92123 269.072 10.1036 271.689 10.2845L271.741 10.0626C266.834 9.45348 261.932 8.82755 257.016 8.25528C255.814 8.11537 254.566 8.19322 253.345 8.11011C251.533 8.10592 249.754 7.77339 248.177 7.14442C247.431 7.68933 246.496 7.56521 245.514 7.40426C242.54 6.78406 239.436 6.52928 236.34 6.65106C235.973 6.62537 235.616 6.55413 235.285 6.44065C234.987 6.38069 234.599 6.21555 234.412 6.29339C234.069 6.42438 233.686 6.49463 233.297 6.49812C232.907 6.5016 232.522 6.43818 232.175 6.31336C231.473 6.07352 230.694 6.2976 230.007 5.90312C229.599 5.67063 228.702 5.75585 228.069 5.85053C227.748 5.89011 227.419 5.87738 227.106 5.81339C226.793 5.74939 226.506 5.6358 226.265 5.48128C226.372 5.34768 226.438 5.21829 226.481 5.2225C227.37 5.27337 228.265 5.24616 229.145 5.1415C230.606 4.89176 232.143 5.00087 233.504 5.45078C235.032 5.45413 236.555 5.58154 238.042 5.83053C239.851 6.15756 241.726 6.26604 243.586 6.15137C244.82 6.06918 246.063 6.21415 247.194 6.57215C247.95 6.73862 248.742 6.80497 249.532 6.76781C249.889 6.76781 250.248 6.76783 250.595 6.78361C250.631 6.69419 250.667 6.60688 250.704 6.51641C250.388 6.37124 250.094 6.13558 249.751 6.09561C246.611 5.62913 243.439 5.278 240.248 5.04365C238.281 4.96491 236.329 4.75358 234.419 4.4125C233.781 4.29363 233.171 4.10323 232.32 3.88652C231.34 4.07693 230.122 4.85642 228.741 3.91702L229.673 3.30372C227.706 3.17328 225.92 3.07439 224.138 2.93133C216.173 2.30015 208.192 1.81309 200.164 1.71105C191.707 1.60586 183.253 1.31552 174.793 1.2261C170.208 1.17876 165.615 1.38811 161.026 1.47647C159.41 1.50698 157.792 1.50908 156.176 1.54906C150.037 1.69738 143.897 1.86467 137.757 2.00984C135.393 2.06875 133.015 2.00983 130.671 2.17709C127.223 2.42536 123.771 2.24232 120.325 2.39485C117.843 2.50636 115.348 2.52212 112.87 2.6736C109.069 2.90714 105.266 3.0723 101.458 3.20905C97.73 3.34265 94.0232 3.62983 90.3031 3.81602C86.659 4.00327 83.0134 4.1537 79.3679 4.31886C79.2772 4.32021 79.1866 4.3174 79.0965 4.31045C78.9401 4.28702 78.7774 4.29765 78.6298 4.34094C77.7639 4.65926 76.7768 4.77461 75.8117 4.67023C75.3551 4.64656 74.8966 4.64656 74.44 4.67023C72.9489 4.77542 71.4579 4.77541 69.9669 4.83222C68.4758 4.88902 66.9848 4.97212 65.5027 5.01209C62.1732 5.10151 58.8393 5.17199 55.5128 5.24352C55.1412 5.26907 54.7662 5.25524 54.4004 5.2025C52.069 4.76667 49.6214 4.74211 47.2733 5.13097C46.66 5.18921 46.0417 5.21699 45.4229 5.21409C42.6516 5.3312 39.8793 5.44971 37.1059 5.56963C36.3917 5.60224 35.6775 5.65276 34.9663 5.70536C34.2551 5.75796 34.6681 5.94308 35.011 6.21028C33.1756 6.31021 31.4624 6.38911 29.7507 6.50062C28.6435 6.56674 27.5417 6.67209 26.4495 6.81623C26.0382 6.88129 25.6797 7.05818 25.452 7.30853C25.2622 7.56031 24.9723 7.76752 24.6179 7.90468C24.2635 8.04185 23.86 8.10302 23.457 8.08067C21.5351 8.12591 19.5997 8.14272 17.6986 8.3184C15.1605 8.56803 12.6446 8.91925 10.163 9.37035L15.1594 9.15157C15.9318 9.11896 16.5013 9.27149 16.5819 10.0037L11.9268 11.7341C11.5766 11.5307 11.1577 11.3947 10.7109 11.3394C10.2641 11.2841 9.80462 11.3114 9.37718 11.4185C8.80687 11.535 8.20194 11.5375 7.62969 11.4259L7.59388 11.7204L9.86474 11.8793C9.03125 12.3116 8.54815 12.6482 7.6073 12.6525C6.82513 12.6922 6.09663 12.9477 5.57952 13.3636C4.86531 14.0794 4.23786 14.8363 3.7038 15.6264C4.218 16.0828 4.54536 16.6298 4.65049 17.2082C4.75562 17.7865 4.6345 18.3742 4.30021 18.9074C3.64334 18.9841 3.02107 19.1684 2.48328 19.4453C1.94549 19.7222 1.50715 20.0842 1.20333 20.5022C1.33753 21.3216 2.80917 21.5783 2.78233 22.4546C2.75996 23.1763 2.78233 23.9 2.78233 24.6153L0.824615 24.9151L2.48861 25.641C2.53185 26.0723 2.39319 26.5057 2.63772 26.7613C2.98474 27.0619 3.20035 27.4272 3.25833 27.8127C3.31631 28.1982 3.21414 28.5873 2.96425 28.9326C2.90869 29.0052 2.8758 29.0854 2.86783 29.1678C2.85985 29.2502 2.87697 29.3328 2.91802 29.4102C3.38391 30.1672 3.58193 30.9929 3.49504 31.816C3.73211 33.2887 4.1362 34.7488 4.44186 36.2173C4.99817 38.2043 4.60158 40.2653 3.31462 42.0757C2.86731 42.6669 3.25497 43.155 3.59046 43.6852C3.92594 44.2154 4.11979 44.7845 4.40309 45.3946L6.29519 45.665C5.80762 46.2962 5.46916 46.7317 5.06211 47.2555C7.44776 47.5227 7.31361 48.8955 7.25247 50.1547C8.93883 50.1316 8.93883 50.1316 9.53972 50.5618C9.79468 50.2231 10.0317 49.9044 10.3225 49.5204C11.6227 50.1516 10.485 50.8532 10.6371 51.4665C10.7365 52.1921 10.7494 52.9222 10.6759 53.6493C10.9741 53.6493 11.1843 53.643 11.393 53.6493C14.0411 53.7398 14.8224 54.4909 14.0978 56.3118C13.81 57.0261 13.4089 57.7152 13.0779 58.38C14.5302 59.9421 15.1475 60.1441 17.5614 59.6634C18.8557 59.4056 20.0962 59.0164 21.5187 58.6472C21.5694 59.1732 21.6111 59.6202 21.6469 60.0147L19.3656 61.7841C19.4337 62.0459 19.5208 62.305 19.6265 62.5605C20.1439 63.6219 20.5913 64.0206 21.635 64.0206C22.1361 63.9982 22.6321 63.9368 23.1141 63.8375ZM58.143 54.1595L57.1112 54.25L57.0724 53.9281H58.1325C58.1355 54.008 58.1385 54.0806 58.143 54.1627V54.1595ZM63.3258 53.0297C63.0902 53.7661 62.4133 53.9618 61.3054 53.9123C61.544 53.1013 61.5649 53.0287 62.8964 53.0287L63.3258 53.0297ZM129.391 49.4962C127.843 49.5067 126.298 49.6761 124.748 49.7192C122.338 49.7887 119.922 49.7655 117.513 49.8644C112.742 50.0559 107.97 50.2725 103.215 50.5366C98.8736 50.7775 94.5391 51.0805 90.2032 51.3782C86.4324 51.638 82.666 51.9357 78.8967 52.2102C76.7421 52.367 74.5816 52.4701 72.4345 52.67C70.1577 52.8804 67.8988 53.1959 65.625 53.4295C65.0481 53.4629 64.4685 53.4661 63.8909 53.4389C64.2324 53.0465 64.6498 52.6784 65.0256 52.6963C66.5025 52.651 67.954 52.409 69.3034 51.983C69.7355 51.8544 70.2054 51.8016 70.6728 51.829C71.1402 51.8565 71.5912 51.9635 71.9872 52.1408C72.1111 52.1994 72.2518 52.2379 72.3993 52.2535C72.5468 52.2692 72.6973 52.2616 72.8401 52.2313C73.8689 51.8505 74.8604 51.4171 75.8087 51.0258C76.3038 51.0678 77.2208 51.274 77.3415 51.1309C78.1437 50.2042 79.4514 50.5871 80.4727 50.3578C81.6253 51.2151 81.6208 51.2099 83.0567 50.6944C83.3161 50.5744 83.6188 50.5094 83.9289 50.5071C85.0342 50.5813 86.1415 50.3811 87.0601 49.9412C87.5304 49.7755 88.0569 49.7057 88.5803 49.7397C89.1038 49.7737 89.6034 49.9101 90.0228 50.1337C91.2976 50.8395 92.5262 50.484 93.7862 50.4493C94.4356 50.4015 95.0781 50.3146 95.7066 50.1894C96.1308 50.1577 96.5474 50.0869 96.9457 49.979C99.5416 49.0375 99.5326 49.0323 102.495 49.634C102.796 49.6461 103.097 49.6176 103.382 49.5499C103.724 49.4864 104.074 49.4484 104.426 49.4362C105.894 49.5105 107.366 49.3502 108.734 48.9671C109.062 48.8756 109.542 48.763 109.789 48.8619C110.589 49.1259 111.496 49.1779 112.345 49.0081C112.781 48.9483 113.224 48.9187 113.668 48.9197C115.628 48.9713 117.601 48.8261 119.566 48.7672C120.673 48.7325 121.78 48.6904 122.888 48.6746C123.24 48.6694 123.593 48.6746 123.947 48.6883C124.572 48.7212 125.2 48.7102 125.823 48.6557C127.154 48.5534 128.496 48.5362 129.832 48.6042C131.368 48.6294 132.905 48.5841 134.442 48.5736C134.678 48.5736 134.912 48.5736 135.146 48.581C135.47 48.5863 135.793 48.5936 136.115 48.581C138.222 48.5105 140.327 48.3706 142.434 48.3622C144.446 48.3622 146.46 48.3927 148.467 48.4274C151.598 48.4832 154.719 48.5379 157.86 48.4421C164.236 48.2475 170.634 48.3674 177.022 48.4232C181.092 48.46 185.161 48.6336 189.23 48.7388C188.881 48.9442 188.476 49.0968 188.04 49.1873C187.604 49.2778 187.147 49.3042 186.696 49.2648C185.163 49.219 183.628 49.2408 182.099 49.33C180.499 49.3363 178.899 49.2879 177.299 49.2648C176.938 49.2648 176.574 49.2564 176.214 49.27C175.24 49.3069 174.265 49.3752 173.288 49.3899C172.754 49.3952 172.219 49.3899 171.684 49.3763C170.989 49.3636 170.296 49.351 169.596 49.3763C167.933 49.5282 166.246 49.4791 164.606 49.2311C163.75 49.1379 162.88 49.1301 162.022 49.208C161.497 49.2343 160.97 49.24 160.444 49.2248C159.706 49.18 158.964 49.1646 158.223 49.1785C156.998 49.2305 155.769 49.1492 154.579 48.9376C154.476 48.9134 154.337 48.9723 154.213 48.9797C149.778 49.2185 145.343 49.5057 140.886 49.4962C138.174 49.4857 135.461 49.4689 132.747 49.4689C131.624 49.4822 130.505 49.4923 129.391 49.4994V49.4962ZM214.787 50.9689C214.585 51.1351 214.386 51.3014 214.19 51.4686C214.125 51.435 214.059 51.4023 213.995 51.3634C214.144 51.1793 214.293 50.9952 214.45 50.8101L214.787 50.9689ZM207.266 51.0121C207.017 51.1299 206.765 51.2477 206.52 51.3666C206.449 51.2614 206.371 51.1562 206.31 51.051C206.576 50.9742 206.844 50.8985 207.112 50.8227C207.16 50.889 207.214 50.9511 207.266 51.0142V51.0121ZM220.198 50.6512C220.472 50.6839 220.74 50.7407 221.009 50.7891C220.976 50.8711 220.946 50.9532 220.915 51.0331L220.072 50.8659C220.103 50.7928 220.144 50.7223 220.196 50.6555L220.198 50.6512ZM206.751 47.6143L205.575 47.5511L205.593 47.4102H206.777C206.769 47.4796 206.76 47.548 206.753 47.6163L206.751 47.6143ZM196.405 47.2534L197.598 47.1262C196.536 47.7289 196.372 47.73 196.407 47.2555L196.405 47.2534ZM191.272 47.2997H189.253C189.253 47.2703 189.253 47.2397 189.26 47.2092H191.283C191.279 47.2429 191.276 47.2724 191.273 47.3018L191.272 47.2997ZM171.089 47.0893L169.875 47.2608L169.816 46.9736L171.067 46.8821L171.089 47.0893ZM239.781 26.4405C239.384 26.6866 239.076 27.0422 238.761 27.0432C236.747 27.1906 234.712 27.0266 232.797 26.5625C233.495 26.086 234.037 26.3079 234.634 26.3931C235.767 26.5583 236.99 26.7782 237.565 25.7735L239.781 26.4405ZM261.252 25.0045C254.645 26 247.931 26.5982 241.181 26.7929C241.132 26.4668 241.074 26.1133 241.032 25.8261C242.034 25.1203 243.012 24.7899 244.261 25.3096C244.49 25.4043 245.007 25.4474 245.108 25.3548C246.243 24.3818 246.911 25.1823 247.643 25.7693C248.732 25.196 249.731 24.669 250.865 24.0662C251.909 24.1714 253.306 24.245 253.722 25.4621C255.477 24.9698 257.092 24.5154 258.598 24.0946C258.924 24.365 259.178 24.7521 259.597 24.8878C259.96 24.9782 260.346 25.0141 260.73 24.993C260.913 24.9961 261.089 24.9961 261.258 25.0045H261.252ZM260.32 24.163C260.353 24.183 260.21 24.3471 260.15 24.4449C259.962 24.365 259.774 24.2871 259.6 24.2156C259.673 24.0757 259.713 24.0052 259.749 23.9273C259.952 23.993 260.145 24.073 260.326 24.1661L260.32 24.163ZM17.9954 10.4875C17.8092 10.5022 17.622 10.51 17.4347 10.5107C17.2856 10.1194 17.1574 9.75748 16.9874 9.30724C17.9014 9.07785 18.8792 9.00397 19.8413 9.0916C20.6692 9.16306 21.509 9.11581 22.3104 8.95272C22.3596 9.0495 22.4118 9.14526 22.4595 9.24204C22.0897 9.46295 21.553 9.92897 21.377 9.86795C21.1337 9.78115 20.8654 9.7347 20.5928 9.73222C19.6281 9.73643 18.9183 10.3823 18.0013 10.4918L17.9954 10.4875ZM192.168 4.09269L191.166 4.32306C191.131 4.23891 191.093 4.15475 191.055 4.06954L192.065 3.85917C192.103 3.94017 192.139 4.01906 192.174 4.09795L192.168 4.09269ZM187.469 3.73715H190.401C190.217 3.88255 189.992 3.99899 189.74 4.07889C189.489 4.15878 189.216 4.20035 188.94 4.20085C188.664 4.20134 188.391 4.16077 188.138 4.08177C187.886 4.00278 187.66 3.88712 187.475 3.74238L187.469 3.73715ZM182.522 3.79606H180.858C180.858 3.74872 180.858 3.70137 180.858 3.65403H182.522C182.527 3.70663 182.527 3.75395 182.528 3.79708L182.522 3.79606ZM8.95969 52.4217C9.1632 52.204 9.32089 51.9665 9.42787 51.7169C8.64806 51.3497 8.26634 51.6043 8.06356 51.9115C7.95322 52.0756 8.15154 52.3407 8.21267 52.5595C8.46615 52.5185 8.81357 52.5353 8.95969 52.4217ZM248.647 43.7956C247.979 43.499 247.979 43.499 247.053 43.7956H248.647ZM243.998 33.1604C244.411 32.6796 243.933 32.4019 243.432 32.1463C242.583 32.4261 242.672 32.8332 243.091 33.1982C243.203 33.2513 243.337 33.2745 243.471 33.2635C243.696 33.2519 243.944 33.2203 243.998 33.1572V33.1604ZM267.246 8.02385C266.364 7.88079 265.486 7.70827 264.596 7.60308C261.365 7.18229 258.131 6.78359 254.904 6.36807C253.787 6.23624 252.639 6.32509 251.588 6.62476C256.697 7.76614 262.026 7.6462 267.152 8.48251C267.182 8.32051 267.214 8.17219 267.247 8.02071L267.246 8.02385ZM244.482 4.81013L243.007 4.65443L242.967 4.83013L244.442 5.01209L244.482 4.81013ZM56.6982 3.96858C56.2658 3.32163 56.2657 3.32163 55.307 3.96858H56.6982ZM84.3061 3.22587C82.2041 2.81418 79.9598 2.97294 78.0155 3.67085L84.3061 3.22587ZM90.6311 2.8051C90.376 2.6253 90.0717 2.48401 89.7367 2.38978C89.4017 2.29554 89.043 2.25034 88.6825 2.25693C88.322 2.26353 87.9672 2.32176 87.6396 2.42811C87.312 2.53446 87.0184 2.68672 86.7768 2.87559C87.3015 3.05259 87.8756 3.14458 88.4572 3.14488C89.2063 3.12576 89.9437 3.00766 90.6311 2.79668V2.8051ZM97.3572 2.0803C96.5972 2.22399 95.8162 2.30519 95.0297 2.32226C94.1902 2.27913 93.3642 1.95827 92.7051 2.59155C93.1618 2.67687 93.6329 2.71792 94.1053 2.71357C95.2563 2.73663 96.3902 2.5129 97.3572 2.07189V2.0803ZM101.013 2.2318C100.831 1.89622 100.618 1.60694 99.9471 1.588C99.0525 1.56486 98.6156 1.90882 98.2488 2.55472L101.013 2.2318ZM105.275 2.15077C105.202 1.98561 105.203 1.87096 105.125 1.83519C104.437 1.50804 104.1 1.73736 103.634 2.36117L105.275 2.15077ZM113.211 1.64059H111.564C111.778 1.90568 111.972 2.0056 112.187 2.0056C112.565 1.94 112.916 1.81162 113.21 1.63111L113.211 1.64059ZM115.432 1.80678C114.051 0.913672 114.036 0.913677 113.514 1.94354L115.432 1.80678ZM118.612 1.70161C118.178 1.67216 117.895 1.08304 117.178 1.56694L118.606 1.7037L118.612 1.70161ZM119.387 1.40389C119.272 1.21559 119.152 1.01468 119.026 0.803238C118.132 0.964187 118.473 1.35446 118.613 1.70055L119.387 1.40389ZM121.624 1.1304L123.671 1.25557C123.403 0.452929 123.154 0.437142 121.618 1.12302L121.624 1.1304ZM146.399 0.394019C146.508 0.314041 146.608 0.227844 146.697 0.136295C146.611 0.0994761 146.523 0.064769 146.382 0.00585938C146.302 0.0940358 146.235 0.187797 146.183 0.285671C146.174 0.304606 146.371 0.390873 146.4 0.390873L146.399 0.394019Z" fill="url(#paint0_linear_2_2400)"/>
</g>
<defs>
<linearGradient id="paint0_linear_2_2400" x1="277.802" y1="32.0132" x2="0.824615" y2="32.0132" gradientUnits="userSpaceOnUse">
<stop stop-color="#D0AA6D" stop-opacity="0.81"/>
<stop offset="1" stop-color="#D0AA6D"/>
</linearGradient>
<clipPath id="clip0_2_2400">
<rect width="277" height="64" fill="white" transform="matrix(-1 0 0 1 277.811 0)"/>
</clipPath>
</defs>
</svg>
