<svg width="282" height="282" viewBox="0 0 282 282" fill="none" xmlns="http://www.w3.org/2000/svg">
<path d="M140.967 264.291C108.204 264.254 76.7939 251.222 53.627 228.055C30.46 204.888 17.4285 173.478 17.3915 140.715C17.4285 107.952 30.46 76.5411 53.627 53.3742C76.7939 30.2072 108.204 17.1757 140.967 17.1387C173.73 17.1757 205.141 30.2072 228.308 53.3742C251.475 76.5411 264.506 107.952 264.543 140.715C264.506 173.478 251.475 204.888 228.308 228.055C205.141 251.222 173.73 264.254 140.967 264.291ZM140.967 18.9457C108.684 18.9822 77.7325 31.8231 54.9045 54.6514C32.0764 77.4796 19.2357 108.431 19.1995 140.715C19.236 172.998 32.0768 203.949 54.9048 226.777C77.7329 249.605 108.684 262.446 140.967 262.483C173.251 262.446 204.202 249.605 227.03 226.777C249.858 203.949 262.699 172.998 262.735 140.715C262.699 108.431 249.859 77.4796 227.03 54.6514C204.202 31.8231 173.251 18.9822 140.967 18.9457Z" fill="#F6CE66"/>
<path d="M140.967 247.354C112.695 247.322 85.5895 236.077 65.5977 216.085C45.6059 196.093 34.3605 168.988 34.3285 140.715C34.3605 112.443 45.6059 85.3371 65.5977 65.3454C85.5895 45.3536 112.695 34.1082 140.967 34.0762C169.24 34.1082 196.346 45.3536 216.337 65.3454C236.329 85.3371 247.574 112.443 247.606 140.715C247.574 168.988 236.329 196.093 216.337 216.085C196.346 236.077 169.24 247.322 140.967 247.354ZM140.967 35.8842C113.174 35.9157 86.5282 46.9704 66.8752 66.6232C47.2223 86.276 36.1673 112.922 36.1355 140.715C36.167 168.509 47.2219 195.155 66.8749 214.808C86.5279 234.461 113.174 245.516 140.967 245.547C168.761 245.516 195.407 234.461 215.06 214.808C234.713 195.155 245.768 168.509 245.799 140.715C245.768 112.922 234.713 86.276 215.06 66.6232C195.407 46.9704 168.761 35.9157 140.967 35.8842Z" fill="#F6CE66"/>
<path d="M140.967 230.416C117.186 230.388 94.3867 220.928 77.5707 204.112C60.7547 187.296 51.2952 164.497 51.2675 140.716C51.2952 116.934 60.7547 94.1348 77.5707 77.3188C94.3867 60.5028 117.186 51.0434 140.967 51.0156C164.749 51.0434 187.548 60.5028 204.364 77.3188C221.18 94.1348 230.64 116.934 230.667 140.716C230.64 164.497 221.18 187.296 204.364 204.112C187.548 220.928 164.749 230.388 140.967 230.416ZM140.967 52.8156C117.664 52.8434 95.3229 62.1134 78.8452 78.5919C62.3676 95.0705 53.0989 117.412 53.0725 140.716C53.1002 164.018 62.3695 186.359 78.847 202.836C95.3245 219.314 117.665 228.583 140.967 228.611C164.27 228.583 186.61 219.314 203.088 202.836C219.565 186.359 228.835 164.018 228.862 140.716C228.835 117.413 219.565 95.0727 203.088 78.5952C186.61 62.1177 164.27 52.8484 140.967 52.8206V52.8156Z" fill="#F6CE66"/>
<path d="M140.967 213.481C121.675 213.459 103.18 205.786 89.5383 192.144C75.8968 178.503 68.2234 160.007 68.2014 140.715C68.2234 121.423 75.8968 102.928 89.5383 89.2861C103.18 75.6446 121.675 67.9712 140.967 67.9492C160.259 67.9712 178.755 75.6446 192.396 89.2861C206.038 102.928 213.711 121.423 213.733 140.715C213.711 160.007 206.038 178.503 192.396 192.144C178.755 205.786 160.259 213.459 140.967 213.481ZM140.967 69.7572C122.155 69.7784 104.119 77.2611 90.8159 90.5637C77.5133 103.866 70.0306 121.902 70.0094 140.715C70.0306 159.528 77.5133 177.564 90.8159 190.867C104.119 204.169 122.155 211.652 140.967 211.673C159.78 211.652 177.816 204.169 191.119 190.867C204.422 177.564 211.904 159.528 211.925 140.715C211.904 121.902 204.422 103.866 191.119 90.5637C177.816 77.2611 159.78 69.7784 140.967 69.7572Z" fill="#F6CE66"/>
<path d="M140.967 196.544C126.166 196.527 111.975 190.639 101.509 180.173C91.0428 169.707 85.1554 155.516 85.1384 140.715C85.1554 125.913 91.0428 111.723 101.509 101.256C111.975 90.7901 126.166 84.9027 140.967 84.8857C155.769 84.9027 169.959 90.7901 180.426 101.256C190.892 111.723 196.779 125.913 196.796 140.715C196.779 155.516 190.892 169.707 180.426 180.173C169.959 190.639 155.769 196.527 140.967 196.544ZM140.967 86.6937C126.645 86.7096 112.914 92.4062 102.786 102.534C92.6589 112.661 86.9623 126.392 86.9464 140.715C86.9623 155.037 92.6589 168.768 102.786 178.896C112.914 189.023 126.645 194.72 140.967 194.736C155.29 194.72 169.021 189.023 179.148 178.896C189.276 168.768 194.973 155.037 194.988 140.715C194.973 126.392 189.276 112.661 179.148 102.534C169.021 92.4062 155.29 86.7096 140.967 86.6937Z" fill="#F6CE66"/>
<path d="M140.967 179.608C130.656 179.596 120.77 175.495 113.479 168.204C106.188 160.912 102.086 151.027 102.074 140.715C102.086 130.404 106.188 120.518 113.479 113.227C120.77 105.936 130.656 101.834 140.967 101.822C151.279 101.834 161.165 105.936 168.456 113.227C175.747 120.518 179.849 130.404 179.86 140.715C179.849 151.027 175.747 160.912 168.456 168.204C161.165 175.495 151.279 179.596 140.967 179.608ZM140.967 103.63C131.135 103.641 121.709 107.552 114.757 114.504C107.804 121.457 103.894 130.883 103.882 140.715C103.894 150.547 107.804 159.974 114.757 166.926C121.709 173.878 131.135 177.789 140.967 177.8C150.8 177.789 160.226 173.878 167.178 166.926C174.131 159.974 178.041 150.547 178.052 140.715C178.041 130.883 174.131 121.457 167.178 114.504C160.226 107.552 150.8 103.641 140.967 103.63Z" fill="#F6CE66"/>
<path d="M140.967 162.671C135.146 162.664 129.566 160.348 125.45 156.232C121.334 152.116 119.018 146.536 119.011 140.715C119.018 134.894 121.334 129.313 125.45 125.197C129.566 121.081 135.146 118.766 140.967 118.759C146.788 118.766 152.369 121.081 156.485 125.197C160.601 129.313 162.917 134.894 162.923 140.715C162.917 146.536 160.601 152.116 156.485 156.232C152.369 160.348 146.788 162.664 140.967 162.671ZM140.967 120.571C135.626 120.577 130.506 122.701 126.729 126.477C122.951 130.253 120.826 135.374 120.819 140.715C120.825 146.057 122.95 151.178 126.727 154.955C130.504 158.732 135.626 160.857 140.967 160.863C146.309 160.857 151.431 158.732 155.208 154.955C158.985 151.178 161.11 146.057 161.115 140.715C161.11 135.373 158.985 130.252 155.208 126.474C151.431 122.697 146.309 120.573 140.967 120.567V120.571Z" fill="#F6CE66"/>
<path d="M140.967 281.228C63.4884 281.228 0.455444 218.194 0.455444 140.715C0.455444 63.2362 63.4884 0.202148 140.967 0.202148C218.446 0.202148 281.479 63.2362 281.479 140.715C281.479 218.194 218.446 281.228 140.967 281.228ZM140.967 2.01015C64.4854 2.01015 2.26244 64.2331 2.26244 140.715C2.26244 217.197 64.4854 279.42 140.967 279.42C217.449 279.42 279.672 217.197 279.672 140.715C279.672 64.2331 217.449 2.01015 140.967 2.01015Z" fill="#F6CE66"/>
</svg>
